<svg width="60" height="63" viewBox="0 0 60 63" fill="none" xmlns="http://www.w3.org/2000/svg">
<mask id="mask0" mask-type="alpha" maskUnits="userSpaceOnUse" x="0" y="0" width="60" height="63">
<path fill-rule="evenodd" clip-rule="evenodd" d="M0 31.3736C0 14.4358 13.4315 0.705078 30 0.705078C46.5685 0.705078 60 14.4358 60 31.3736C60 48.3114 46.5685 62.0421 30 62.0421C13.4315 62.0421 0 48.3114 0 31.3736Z" fill="white"/>
</mask>
<g mask="url(#mask0)">
<path fill-rule="evenodd" clip-rule="evenodd" d="M30.0015 15.0171C25.6561 15.0171 25.1108 15.0365 23.4041 15.1159C21.7007 15.1957 20.5381 15.4713 19.5207 15.8758C18.4684 16.2936 17.5757 16.8525 16.6864 17.762C15.7964 18.6711 15.2497 19.5837 14.8397 20.6591C14.443 21.6995 14.173 22.8884 14.0963 24.629C14.02 26.3738 14 26.9316 14 31.3738C14 35.816 14.0193 36.3718 14.0967 38.1165C14.175 39.8578 14.4447 41.0464 14.84 42.0864C15.249 43.1622 15.7957 44.0748 16.6854 44.984C17.5744 45.8938 18.467 46.454 19.5187 46.8718C20.5367 47.2763 21.6997 47.552 23.4028 47.6317C25.1094 47.7111 25.6545 47.7305 29.9995 47.7305C34.3452 47.7305 34.8889 47.7111 36.5956 47.6317C38.2989 47.552 39.4629 47.2763 40.4809 46.8718C41.5329 46.454 42.4243 45.8938 43.3133 44.984C44.2033 44.0748 44.75 43.1622 45.16 42.0868C45.5533 41.0464 45.8233 39.8575 45.9033 38.1169C45.98 36.3722 46 35.816 46 31.3738C46 26.9316 45.98 26.3741 45.9033 24.6294C45.8233 22.8881 45.5533 21.6995 45.16 20.6595C44.75 19.5837 44.2033 18.6711 43.3133 17.762C42.4233 16.8521 41.5333 16.2933 40.4799 15.8758C39.4599 15.4713 38.2966 15.1957 36.5932 15.1159C34.8865 15.0365 34.3432 15.0171 29.9965 15.0171H30.0015ZM28.5662 17.9647C28.9922 17.964 29.4675 17.9647 30.0015 17.9647C34.2736 17.9647 34.7799 17.9804 36.4669 18.0587C38.0269 18.1317 38.8736 18.3981 39.4376 18.622C40.1843 18.9185 40.7166 19.2729 41.2763 19.8454C41.8363 20.4179 42.183 20.9631 42.4736 21.7264C42.6926 22.3023 42.9536 23.1678 43.0246 24.7626C43.1013 26.4869 43.118 27.0048 43.118 31.37C43.118 35.7352 43.1013 36.2532 43.0246 37.9775C42.9533 39.5723 42.6926 40.4378 42.4736 41.0137C42.1836 41.777 41.8363 42.3205 41.2763 42.8927C40.7163 43.4652 40.1846 43.8195 39.4376 44.116C38.8743 44.3409 38.0269 44.6067 36.4669 44.6796C34.7802 44.758 34.2736 44.7751 30.0015 44.7751C25.7291 44.7751 25.2228 44.758 23.5361 44.6796C21.9761 44.606 21.1294 44.3396 20.5651 44.1157C19.8184 43.8192 19.2851 43.4648 18.7251 42.8923C18.1651 42.3198 17.8184 41.776 17.5277 41.0123C17.3087 40.4364 17.0477 39.5709 16.9767 37.9761C16.9 36.2518 16.8847 35.7339 16.8847 31.366C16.8847 26.998 16.9 26.4828 16.9767 24.7585C17.048 23.1637 17.3087 22.2982 17.5277 21.7216C17.8177 20.9583 18.1651 20.4131 18.7251 19.8406C19.2851 19.2681 19.8184 18.9137 20.5651 18.6166C21.1291 18.3917 21.9761 18.1259 23.5361 18.0526C25.0121 17.9845 25.5841 17.964 28.5662 17.9606V17.9647ZM38.5423 20.6806C37.4823 20.6806 36.6222 21.5587 36.6222 22.6427C36.6222 23.7264 37.4823 24.6055 38.5423 24.6055C39.6023 24.6055 40.4623 23.7264 40.4623 22.6427C40.4623 21.5591 39.6023 20.6799 38.5423 20.6799V20.6806ZM30.0015 22.9739C25.4638 22.9739 21.7848 26.735 21.7848 31.3738C21.7848 36.0126 25.4638 39.7719 30.0015 39.7719C34.5392 39.7719 38.2169 36.0126 38.2169 31.3738C38.2169 26.735 34.5389 22.9739 30.0012 22.9739H30.0015ZM30.0015 25.9215C32.9469 25.9215 35.3349 28.3624 35.3349 31.3738C35.3349 34.3848 32.9469 36.826 30.0015 36.826C27.0558 36.826 24.6681 34.3848 24.6681 31.3738C24.6681 28.3624 27.0558 25.9215 30.0015 25.9215Z" fill="url(#paint0_linear)"/>
</g>
<defs>
<linearGradient id="paint0_linear" x1="29.3905" y1="47.7305" x2="29.3905" y2="15.0171" gradientUnits="userSpaceOnUse">
<stop stop-color="#00719B"/>
<stop offset="1" stop-color="#00B0C6"/>
</linearGradient>
</defs>
</svg>
