<svg width="32" height="33" viewBox="0 0 32 33" fill="none" xmlns="http://www.w3.org/2000/svg">
<path fill-rule="evenodd" clip-rule="evenodd" d="M16.0015 0.0170898C11.6561 0.0170898 11.1108 0.0365135 9.4041 0.115912C7.70074 0.195651 6.53807 0.47133 5.52072 0.875818C4.46838 1.2936 3.5757 1.85245 2.68636 2.76195C1.79635 3.67111 1.24968 4.58368 0.839675 5.65914C0.443005 6.69949 0.173002 7.88842 0.0963343 9.62905C0.0200002 11.3738 0 11.9316 0 16.3738C0 20.816 0.0193335 21.3718 0.0966677 23.1165C0.175002 24.8578 0.444671 26.0464 0.840009 27.0864C1.24901 28.1622 1.79569 29.0748 2.68536 29.984C3.57437 30.8938 4.46705 31.454 5.51872 31.8718C6.53673 32.2763 7.69974 32.552 9.40276 32.6317C11.1094 32.7111 11.6545 32.7305 15.9995 32.7305C20.3452 32.7305 20.8889 32.7111 22.5956 32.6317C24.2989 32.552 25.4629 32.2763 26.4809 31.8718C27.5329 31.454 28.4243 30.8938 29.3133 29.984C30.2033 29.0748 30.75 28.1622 31.16 27.0868C31.5533 26.0464 31.8233 24.8575 31.9033 23.1169C31.98 21.3722 32 20.816 32 16.3738C32 11.9316 31.98 11.3741 31.9033 9.62939C31.8233 7.88808 31.5533 6.69949 31.16 5.65948C30.75 4.58368 30.2033 3.67111 29.3133 2.76195C28.4233 1.85211 27.5333 1.29325 26.4799 0.875818C25.4599 0.47133 24.2966 0.195651 22.5932 0.115912C20.8865 0.0365135 20.3432 0.0170898 15.9965 0.0170898H16.0015ZM14.5662 2.96469C14.9922 2.96401 15.4675 2.96469 16.0015 2.96469C20.2736 2.96469 20.7799 2.98037 22.4669 3.05874C24.0269 3.13167 24.8736 3.39814 25.4376 3.62203C26.1843 3.91849 26.7166 4.27289 27.2763 4.84537C27.8363 5.41786 28.183 5.96308 28.4736 6.7264C28.6926 7.30229 28.9536 8.16783 29.0246 9.76261C29.1013 11.4869 29.118 12.0048 29.118 16.37C29.118 20.7352 29.1013 21.2532 29.0246 22.9775C28.9533 24.5723 28.6926 25.4378 28.4736 26.0137C28.1836 26.777 27.8363 27.3205 27.2763 27.8927C26.7163 28.4652 26.1846 28.8195 25.4376 29.116C24.8743 29.3409 24.0269 29.6067 22.4669 29.6796C20.7802 29.758 20.2736 29.7751 16.0015 29.7751C11.7291 29.7751 11.2228 29.758 9.53611 29.6796C7.97609 29.606 7.12942 29.3396 6.56508 29.1157C5.8184 28.8192 5.28506 28.4648 4.72506 27.8923C4.16505 27.3198 3.81838 26.776 3.52771 26.0123C3.30871 25.4364 3.04771 24.5709 2.97671 22.9761C2.90004 21.2518 2.8847 20.7339 2.8847 16.366C2.8847 11.998 2.90004 11.4828 2.97671 9.75852C3.04804 8.16374 3.30871 7.2982 3.52771 6.72162C3.81771 5.95831 4.16505 5.41309 4.72506 4.8406C5.28506 4.26812 5.8184 3.91372 6.56508 3.61657C7.12908 3.39167 7.97609 3.12587 9.53611 3.05261C11.0121 2.98446 11.5841 2.96401 14.5662 2.9606V2.96469ZM24.5423 5.68058C23.4823 5.68058 22.6222 6.55874 22.6222 7.64272C22.6222 8.72635 23.4823 9.60553 24.5423 9.60553C25.6023 9.60553 26.4623 8.72635 26.4623 7.64272C26.4623 6.55908 25.6023 5.6799 24.5423 5.6799V5.68058ZM16.0015 7.97394C11.4638 7.97394 7.78475 11.735 7.78475 16.3738C7.78475 21.0126 11.4638 24.7719 16.0015 24.7719C20.5392 24.7719 24.2169 21.0126 24.2169 16.3738C24.2169 11.735 20.5389 7.97394 16.0012 7.97394H16.0015ZM16.0015 10.9215C18.9469 10.9215 21.3349 13.3624 21.3349 16.3738C21.3349 19.3848 18.9469 21.826 16.0015 21.826C13.0558 21.826 10.6681 19.3848 10.6681 16.3738C10.6681 13.3624 13.0558 10.9215 16.0015 10.9215Z" fill="url(#paint0_linear)"/>
<defs>
<linearGradient id="paint0_linear" x1="15.3905" y1="32.7305" x2="15.3905" y2="0.0170894" gradientUnits="userSpaceOnUse">
<stop stop-color="#00719B"/>
<stop offset="1" stop-color="#00B0C6"/>
</linearGradient>
</defs>
</svg>
