<svg width="60" height="63" viewBox="0 0 60 63" fill="none" xmlns="http://www.w3.org/2000/svg">
<path fill-rule="evenodd" clip-rule="evenodd" d="M29.1015 25.6331L29.1645 26.6943L28.1152 26.5643C24.2961 26.0662 20.9596 24.377 18.1267 21.5399L16.7417 20.1322L16.385 21.1717C15.6295 23.489 16.1122 25.9363 17.686 27.5822C18.5254 28.4918 18.3365 28.6218 16.8886 28.0803C16.385 27.9071 15.9443 27.7771 15.9023 27.8421C15.7554 27.9937 16.2591 29.9645 16.6578 30.7442C17.2034 31.827 18.3155 32.8882 19.5326 33.5163L20.5609 34.0144L19.3438 34.036C18.1686 34.036 18.1267 34.0577 18.2526 34.5125C18.6723 35.9202 20.33 37.4146 22.1767 38.0643L23.4777 38.5191L22.3445 39.2121C20.6658 40.2083 18.6932 40.7714 16.7207 40.8147C15.7764 40.8364 15 40.923 15 40.988C15 41.2046 17.5601 42.4174 19.05 42.8938C23.5197 44.3015 28.8287 43.6951 32.8157 41.2912C35.6486 39.5803 38.4815 36.1801 39.8035 32.8882C40.517 31.134 41.2305 27.9287 41.2305 26.3911C41.2305 25.3949 41.2934 25.2649 42.4685 24.0738C43.161 23.3807 43.8115 22.6227 43.9375 22.4062C44.1473 21.9947 44.1263 21.9947 43.0561 22.3629C41.2724 23.0126 41.0206 22.9259 41.902 21.9514C42.5525 21.2583 43.3289 20.0022 43.3289 19.6341C43.3289 19.5691 43.0141 19.6774 42.6574 19.8723C42.2797 20.0889 41.4403 20.4137 40.8108 20.6086L39.6776 20.9768L38.6494 20.2621C38.0828 19.8723 37.2854 19.4391 36.8657 19.3092C35.7955 19.006 34.1587 19.0493 33.1935 19.3958C30.5704 20.3704 28.9126 22.8826 29.1015 25.6331Z" fill="url(#paint0_linear)"/>
<defs>
<linearGradient id="paint0_linear" x1="28.9678" y1="43.6412" x2="28.9678" y2="19.1064" gradientUnits="userSpaceOnUse">
<stop stop-color="#00719B"/>
<stop offset="1" stop-color="#00B0C6"/>
</linearGradient>
</defs>
</svg>
