<svg width="30" height="25" viewBox="0 0 30 25" fill="none" xmlns="http://www.w3.org/2000/svg">
<path fill-rule="evenodd" clip-rule="evenodd" d="M14.1015 6.63308L14.1645 7.69428L13.1152 7.56434C9.29608 7.06623 5.95956 5.37697 3.12667 2.53989L1.7417 1.13218L1.38497 2.17172C0.629531 4.48903 1.11217 6.93628 2.686 8.58222C3.52537 9.49182 3.33652 9.62177 1.88859 9.08034C1.38497 8.90708 0.944297 8.77714 0.902328 8.84211C0.755437 8.99371 1.25906 10.9645 1.65777 11.7442C2.20336 12.827 3.31553 13.8882 4.53263 14.5163L5.56086 15.0144L4.34377 15.036C3.16864 15.036 3.12667 15.0577 3.25258 15.5125C3.67227 16.9202 5.33003 18.4146 7.17666 19.0643L8.47769 19.5191L7.34453 20.2121C5.66578 21.2083 3.69325 21.7714 1.72072 21.8147C0.776422 21.8364 0 21.923 0 21.988C0 22.2046 2.56009 23.4174 4.04998 23.8938C8.51966 25.3015 13.8287 24.6951 17.8157 22.2912C20.6486 20.5803 23.4815 17.1801 24.8035 13.8882C25.517 12.134 26.2305 8.92874 26.2305 7.39108C26.2305 6.39486 26.2934 6.26491 27.4685 5.07377C28.161 4.38074 28.8115 3.62274 28.9375 3.40617C29.1473 2.99469 29.1263 2.99469 28.0561 3.36286C26.2724 4.01257 26.0206 3.92594 26.902 2.95137C27.5525 2.25835 28.3289 1.00223 28.3289 0.634062C28.3289 0.56909 28.0141 0.677376 27.6574 0.87229C27.2797 1.08886 26.4403 1.41372 25.8108 1.60863L24.6776 1.9768L23.6494 1.26212C23.0828 0.87229 22.2854 0.439147 21.8657 0.309205C20.7955 0.00600502 19.1587 0.0493192 18.1935 0.395833C15.5704 1.3704 13.9126 3.88263 14.1015 6.63308Z" fill="url(#paint0_linear)"/>
<defs>
<linearGradient id="paint0_linear" x1="13.9678" y1="24.6412" x2="13.9678" y2="0.106445" gradientUnits="userSpaceOnUse">
<stop stop-color="#00719B"/>
<stop offset="1" stop-color="#00B0C6"/>
</linearGradient>
</defs>
</svg>
