<?xml version="1.0" encoding="UTF-8" standalone="no"?><!DOCTYPE svg PUBLIC "-//W3C//DTD SVG 1.1//EN" "http://www.w3.org/Graphics/SVG/1.1/DTD/svg11.dtd"><svg width="100%" height="100%" viewBox="0 0 60 63" version="1.1" xmlns="http://www.w3.org/2000/svg" xmlns:xlink="http://www.w3.org/1999/xlink" xml:space="preserve" xmlns:serif="http://www.serif.com/" style="fill-rule:evenodd;clip-rule:evenodd;stroke-linejoin:round;stroke-miterlimit:2;"><g transform="matrix(0.45877,0,0,0.45877,-957.3,-358.149)"><path d="M2142.15,861.875L2142.15,834.711L2168.09,848.34L2142.15,861.875ZM2195.29,820.408C2191.64,816.556 2187.54,816.538 2185.67,816.314C2172.24,815.335 2152.08,815.335 2152.08,815.335L2152.04,815.335C2152.04,815.335 2131.89,815.335 2118.46,816.314C2116.58,816.538 2112.49,816.556 2108.84,820.408C2105.96,823.342 2105.02,830.003 2105.02,830.003C2105.02,830.003 2104.06,837.829 2104.06,845.651L2104.06,852.986C2104.06,860.812 2105.02,868.634 2105.02,868.634C2105.02,868.634 2105.96,875.296 2108.84,878.229C2112.49,882.081 2117.29,881.961 2119.42,882.362C2127.1,883.106 2152.06,883.335 2152.06,883.335C2152.06,883.335 2172.24,883.305 2185.67,882.326C2187.54,882.099 2191.64,882.081 2195.29,878.229C2198.16,875.296 2199.1,868.634 2199.1,868.634C2199.1,868.634 2200.06,860.812 2200.06,852.986L2200.06,845.651C2200.06,837.829 2199.1,830.003 2199.1,830.003C2199.1,830.003 2198.16,823.342 2195.29,820.408Z" style="fill:url(#_Linear1);fill-rule:nonzero;"/></g><defs><linearGradient id="_Linear1" x1="0" y1="0" x2="1" y2="0" gradientUnits="userSpaceOnUse" gradientTransform="matrix(4.1638e-15,-68,48.1667,2.94936e-15,2155.12,883.335)"><stop offset="0" style="stop-color:rgb(0,113,155);stop-opacity:1"/><stop offset="1" style="stop-color:rgb(0,176,198);stop-opacity:1"/></linearGradient></defs></svg>