<?xml version="1.0" encoding="UTF-8" standalone="no"?><!DOCTYPE svg PUBLIC "-//W3C//DTD SVG 1.1//EN" "http://www.w3.org/Graphics/SVG/1.1/DTD/svg11.dtd"><svg width="100%" height="100%" viewBox="0 0 12 12" version="1.1" xmlns="http://www.w3.org/2000/svg" xmlns:xlink="http://www.w3.org/1999/xlink" xml:space="preserve" xmlns:serif="http://www.serif.com/" style="fill-rule:evenodd;clip-rule:evenodd;stroke-linejoin:round;stroke-miterlimit:2;"><rect id="alma-header-bg" x="0" y="0" width="11.52" height="11.52" style="fill:none;"/><clipPath id="_clip1"><rect x="0" y="0" width="11.52" height="11.52"/></clipPath><g clip-path="url(#_clip1)"><path d="M5.416,5.775c0,-0.182 0.148,-0.331 0.331,-0.331c0.182,0 0.331,0.149 0.331,0.331c0,0.183 -0.149,0.331 -0.331,0.331c-0.183,0 -0.331,-0.148 -0.331,-0.331Z" style="fill:#00e2ff;"/><path d="M6.127,6.487c0,-0.183 0.148,-0.331 0.331,-0.331c0.183,0 0.331,0.148 0.331,0.331c0,0.182 -0.148,0.33 -0.331,0.33c-0.183,0 -0.331,-0.148 -0.331,-0.33Z" style="fill:#00e2ff;"/><path d="M6.126,5.065c0,-0.182 0.148,-0.33 0.331,-0.33c0.182,0 0.331,0.148 0.331,0.33c0,0.183 -0.149,0.331 -0.331,0.331c-0.183,0 -0.331,-0.148 -0.331,-0.331Z" style="fill:#00e2ff;"/><path d="M6.841,4.35c0,-0.183 0.149,-0.331 0.331,-0.331c0.183,0 0.331,0.148 0.331,0.331c0,0.182 -0.148,0.331 -0.331,0.331c-0.182,0 -0.331,-0.149 -0.331,-0.331Z" style="fill:#00e2ff;"/><path d="M7.557,3.634c0,-0.183 0.148,-0.331 0.331,-0.331c0.183,0 0.331,0.148 0.331,0.331c0,0.183 -0.148,0.331 -0.331,0.331c-0.183,0 -0.331,-0.148 -0.331,-0.331Z" style="fill:#00e2ff;"/><path d="M8.273,2.918c0,-0.182 0.148,-0.331 0.331,-0.331c0.182,0 0.331,0.149 0.331,0.331c0,0.183 -0.149,0.331 -0.331,0.331c-0.183,0 -0.331,-0.148 -0.331,-0.331Z" style="fill:#00e2ff;"/><path d="M8.989,2.203c0,-0.183 0.148,-0.331 0.331,-0.331c0.182,0 0.33,0.148 0.33,0.331c0,0.182 -0.148,0.331 -0.33,0.331c-0.183,0 -0.331,-0.149 -0.331,-0.331Z" style="fill:#00e2ff;"/><path d="M9.704,1.487c0,-0.183 0.149,-0.331 0.331,-0.331c0.183,0 0.331,0.148 0.331,0.331c0,0.182 -0.148,0.331 -0.331,0.331c-0.182,0 -0.331,-0.149 -0.331,-0.331Z" style="fill:#00e2ff;"/><path d="M10.42,0.771c0,-0.183 0.148,-0.331 0.331,-0.331c0.183,0 0.331,0.148 0.331,0.331c0,0.183 -0.148,0.331 -0.331,0.331c-0.183,0 -0.331,-0.148 -0.331,-0.331Z" style="fill:#00e2ff;"/><path d="M6.838,7.198c0,-0.183 0.148,-0.331 0.331,-0.331c0.183,0 0.331,0.148 0.331,0.331c0,0.182 -0.148,0.331 -0.331,0.331c-0.183,0 -0.331,-0.149 -0.331,-0.331Z" style="fill:#00e2ff;"/><path d="M7.549,7.909c0,-0.183 0.149,-0.331 0.331,-0.331c0.183,0 0.331,0.148 0.331,0.331c0,0.183 -0.148,0.331 -0.331,0.331c-0.182,0 -0.331,-0.148 -0.331,-0.331Z" style="fill:#00e2ff;"/><path d="M8.26,8.62c0,-0.183 0.149,-0.331 0.331,-0.331c0.183,0 0.331,0.148 0.331,0.331c0,0.183 -0.148,0.331 -0.331,0.331c-0.182,0 -0.331,-0.148 -0.331,-0.331Z" style="fill:#00e2ff;"/><path d="M8.972,9.331c0,-0.182 0.148,-0.331 0.331,-0.331c0.182,0 0.33,0.149 0.33,0.331c0,0.183 -0.148,0.331 -0.33,0.331c-0.183,0 -0.331,-0.148 -0.331,-0.331Z" style="fill:#00e2ff;"/><path d="M9.683,10.042c0,-0.182 0.148,-0.331 0.331,-0.331c0.182,0 0.331,0.149 0.331,0.331c0,0.183 -0.149,0.331 -0.331,0.331c-0.183,0 -0.331,-0.148 -0.331,-0.331Z" style="fill:#00e2ff;"/><path d="M10.394,10.754c0,-0.183 0.148,-0.331 0.331,-0.331c0.183,0 0.331,0.148 0.331,0.331c0,0.182 -0.148,0.33 -0.331,0.33c-0.183,0 -0.331,-0.148 -0.331,-0.33Z" style="fill:#00e2ff;"/><path d="M4.707,6.484c0,-0.182 0.148,-0.331 0.331,-0.331c0.182,0 0.331,0.149 0.331,0.331c0,0.183 -0.149,0.331 -0.331,0.331c-0.183,0 -0.331,-0.148 -0.331,-0.331Z" style="fill:#00e2ff;"/><path d="M4,7.191c0,-0.183 0.149,-0.331 0.331,-0.331c0.183,0 0.331,0.148 0.331,0.331c0,0.182 -0.148,0.331 -0.331,0.331c-0.182,0 -0.331,-0.149 -0.331,-0.331Z" style="fill:#00e2ff;"/><path d="M3.294,7.897c0,-0.183 0.148,-0.331 0.331,-0.331c0.183,0 0.331,0.148 0.331,0.331c0,0.183 -0.148,0.331 -0.331,0.331c-0.183,0 -0.331,-0.148 -0.331,-0.331Z" style="fill:#00e2ff;"/><path d="M2.588,8.604c0,-0.183 0.148,-0.331 0.331,-0.331c0.182,0 0.331,0.148 0.331,0.331c0,0.182 -0.149,0.33 -0.331,0.33c-0.183,0 -0.331,-0.148 -0.331,-0.33Z" style="fill:#00e2ff;"/><path d="M1.881,9.31c0,-0.183 0.149,-0.331 0.331,-0.331c0.183,0 0.331,0.148 0.331,0.331c0,0.183 -0.148,0.331 -0.331,0.331c-0.182,0 -0.331,-0.148 -0.331,-0.331Z" style="fill:#00e2ff;"/><path d="M1.175,10.016c0,-0.182 0.148,-0.331 0.331,-0.331c0.182,0 0.331,0.149 0.331,0.331c0,0.183 -0.149,0.331 -0.331,0.331c-0.183,0 -0.331,-0.148 -0.331,-0.331Z" style="fill:#00e2ff;"/><path d="M0.468,10.723c0,-0.183 0.149,-0.331 0.331,-0.331c0.183,0 0.331,0.148 0.331,0.331c0,0.182 -0.148,0.331 -0.331,0.331c-0.182,0 -0.331,-0.149 -0.331,-0.331Z" style="fill:#00e2ff;"/><path d="M-0.331,11.52c0,-0.183 0.148,-0.331 0.331,-0.331c0.183,0 0.331,0.148 0.331,0.331c0,0.183 -0.148,0.331 -0.331,0.331c-0.183,0 -0.331,-0.148 -0.331,-0.331Z" style="fill:#00e2ff;"/><path d="M11.189,11.52c0,-0.183 0.148,-0.331 0.331,-0.331c0.183,0 0.331,0.148 0.331,0.331c0,0.183 -0.148,0.331 -0.331,0.331c-0.183,0 -0.331,-0.148 -0.331,-0.331Z" style="fill:#00e2ff;"/><path d="M11.189,0c0,-0.183 0.148,-0.331 0.331,-0.331c0.183,0 0.331,0.148 0.331,0.331c0,0.183 -0.148,0.331 -0.331,0.331c-0.183,0 -0.331,-0.148 -0.331,-0.331Z" style="fill:#00e2ff;"/><path d="M0.433,0.805c0,-0.183 0.149,-0.331 0.331,-0.331c0.183,0 0.331,0.148 0.331,0.331c0,0.182 -0.148,0.331 -0.331,0.331c-0.182,0 -0.331,-0.149 -0.331,-0.331Z" style="fill:#00e2ff;"/><path d="M-0.331,0c0,-0.183 0.148,-0.331 0.331,-0.331c0.183,0 0.331,0.148 0.331,0.331c0,0.183 -0.148,0.331 -0.331,0.331c-0.183,0 -0.331,-0.148 -0.331,-0.331Z" style="fill:#00e2ff;"/><path d="M1.144,1.516c0,-0.183 0.148,-0.331 0.331,-0.331c0.183,0 0.331,0.148 0.331,0.331c0,0.182 -0.148,0.331 -0.331,0.331c-0.183,0 -0.331,-0.149 -0.331,-0.331Z" style="fill:#00e2ff;"/><path d="M1.855,2.226c0,-0.182 0.148,-0.33 0.331,-0.33c0.183,0 0.331,0.148 0.331,0.33c0,0.183 -0.148,0.331 -0.331,0.331c-0.183,0 -0.331,-0.148 -0.331,-0.331Z" style="fill:#00e2ff;"/><path d="M2.566,2.937c0,-0.182 0.148,-0.331 0.331,-0.331c0.183,0 0.331,0.149 0.331,0.331c0,0.183 -0.148,0.331 -0.331,0.331c-0.183,0 -0.331,-0.148 -0.331,-0.331Z" style="fill:#00e2ff;"/><path d="M3.277,3.648c0,-0.182 0.148,-0.331 0.331,-0.331c0.183,0 0.331,0.149 0.331,0.331c0,0.183 -0.148,0.331 -0.331,0.331c-0.183,0 -0.331,-0.148 -0.331,-0.331Z" style="fill:#00e2ff;"/><path d="M3.988,4.359c0,-0.182 0.148,-0.331 0.331,-0.331c0.183,0 0.331,0.149 0.331,0.331c0,0.183 -0.148,0.331 -0.331,0.331c-0.183,0 -0.331,-0.148 -0.331,-0.331Z" style="fill:#00e2ff;"/><path d="M4.699,5.07c0,-0.182 0.148,-0.331 0.331,-0.331c0.183,0 0.331,0.149 0.331,0.331c0,0.183 -0.148,0.331 -0.331,0.331c-0.183,0 -0.331,-0.148 -0.331,-0.331Z" style="fill:#00e2ff;"/></g></svg>