<?xml version="1.0" encoding="UTF-8" standalone="no"?>
<!DOCTYPE svg PUBLIC "-//W3C//DTD SVG 1.1//EN" "http://www.w3.org/Graphics/SVG/1.1/DTD/svg11.dtd">
<svg width="100%" height="100%" viewBox="0 0 2071 448" version="1.1" xmlns="http://www.w3.org/2000/svg" xmlns:xlink="http://www.w3.org/1999/xlink" xml:space="preserve" xmlns:serif="http://www.serif.com/" style="fill-rule:evenodd;clip-rule:evenodd;stroke-linejoin:round;stroke-miterlimit:1.41421;">
    <g id="Artboard1" transform="matrix(0.957075,0,0,0.524542,-187.758,-79.0668)">
        <rect x="196.179" y="150.735" width="2163.84" height="852.961" style="fill:none;"/>
        <g transform="matrix(5.80472,0,0,10.0286,1122.7,881.557)">
            <path d="M0,-3.269L-133.979,-3.269C-144.002,-3.269 -154.025,-7.975 -158.529,-14.724C-156.687,-7.975 -145.436,0.008 -133.773,0.008L0.205,0.008C10.232,0.008 20.262,4.71 24.76,11.455C22.922,4.71 11.66,-3.269 0,-3.269" style="fill:rgb(190,133,77);fill-rule:nonzero;"/>
        </g>
        <g transform="matrix(5.80472,0,0,10.0286,1430.61,881.557)">
            <path d="M0,-3.269L133.975,-3.269C144.002,-3.269 154.029,-7.975 158.529,-14.724C156.691,-7.975 145.432,0.008 133.77,0.008L-0.207,0.008C-10.23,0.008 -20.258,4.71 -24.758,11.455C-22.918,4.71 -11.662,-3.269 0,-3.269" style="fill:rgb(190,133,77);fill-rule:nonzero;"/>
        </g>
        <g transform="matrix(5.80472,0,0,10.0286,1430.6,269.383)">
            <path d="M0,3.271L133.98,3.271C144.002,3.271 154.027,7.976 158.531,14.725C156.687,7.976 145.437,-0.006 133.775,-0.006L-0.205,-0.006C-10.23,-0.006 -20.262,-4.708 -24.758,-11.454C-22.92,-4.708 -11.658,3.271 0,3.271" style="fill:rgb(190,133,77);fill-rule:nonzero;"/>
        </g>
        <g transform="matrix(5.80472,0,0,10.0286,1122.7,269.383)">
            <path d="M0,3.271L-133.975,3.271C-144.002,3.271 -154.029,7.976 -158.529,14.725C-156.691,7.976 -145.432,-0.006 -133.771,-0.006L0.205,-0.006C10.23,-0.006 20.256,-4.708 24.758,-11.454C22.916,-4.708 11.662,3.271 0,3.271" style="fill:rgb(190,133,77);fill-rule:nonzero;"/>
        </g>
    </g>
</svg>
