<?xml version="1.0" encoding="UTF-8" standalone="no"?>
<!DOCTYPE svg PUBLIC "-//W3C//DTD SVG 1.1//EN" "http://www.w3.org/Graphics/SVG/1.1/DTD/svg11.dtd">
<svg width="100%" height="100%" viewBox="0 0 2127 2132" version="1.1" xmlns="http://www.w3.org/2000/svg" xmlns:xlink="http://www.w3.org/1999/xlink" xml:space="preserve" xmlns:serif="http://www.serif.com/" style="fill-rule:evenodd;clip-rule:evenodd;stroke-linejoin:round;stroke-miterlimit:1.41421;">
    <g id="Shell" transform="matrix(0.919808,0,0,0.887178,-123.972,-323.348)">
        <rect x="134.781" y="364.468" width="2311.91" height="2402.57" style="fill:none;"/>
        <g transform="matrix(6.03991,0,0,6.26206,1833.11,960.469)">
            <path d="M0,217.749C0,217.749 -0.043,217.86 -0.107,218.055C-1.554,209.124 -6.04,196.906 -19.223,189.294C-20.975,188.283 -22.858,187.444 -24.83,186.78C-22.337,187.21 -20.137,187.858 -19.073,188.858C-5.788,196.15 11.682,210.041 36.951,204.468C62.226,198.905 67.063,167.471 67.063,167.471C67.063,167.471 63.682,184.531 40.958,195.124C19.844,204.958 -15.515,187.201 -30.062,185.472C-42.625,183.328 -57.073,187.743 -64.218,200.118C-71.034,211.927 -72.613,236.16 -42.005,246.619C-61.906,237.145 -66.996,219.874 -58.973,205.975C-50.94,192.062 -35.127,190.636 -23.381,197.418C-22.349,198.014 -21.309,198.707 -20.275,199.481C-19.518,200.18 -18.789,200.891 -18.105,201.619C-3.6,219.953 -11.911,251.957 -37.805,257.539C-51.041,260.388 -83.615,251.244 -89.982,222.085C-95.361,197.451 -65.995,169.876 -34.12,164.198C-3.467,158.739 25.634,149.968 39.789,126.556C32.15,137.423 11.245,147.435 -9.233,152.704C-28.755,157.731 -49.347,152.364 -74.197,173.008C-87.578,184.121 -99.337,203.374 -94.562,222.108C-92.568,229.921 -88.353,241.665 -74.916,251.324C-62.555,260.205 -46.266,264.879 -27.99,256.356C-27.738,256.238 -27.502,256.115 -27.255,255.995C-37.759,262.896 -50.805,265.1 -61.851,262.292C-87.47,255.771 -115.25,221.701 -102.789,189.594C-91.093,159.45 -57.647,148.915 -33.761,138.545C-3.308,125.317 30.21,106.529 50.185,77.47C66.835,53.235 62.61,20.368 51.288,12.31C51.288,12.31 63.44,45.946 39.877,79.508C20.892,106.548 -13.547,128.726 -52.452,142.585C-70.49,149.011 -105.009,164.439 -112.119,192.569C-122.033,231.787 -87.259,259.028 -63.383,265.115C-38.057,271.566 -18.986,257.021 -11.723,242.239C-7.646,235.096 -7.429,227.775 -7.253,223.067C-7.144,220.107 -7.94,215.885 -9.93,211.42C-4.964,220.332 -3.018,232.157 -8.884,245.315C-11.094,250.297 -17.67,258.648 -27.462,265.321C-45.412,274.384 -66.095,271.702 -86.709,259.064C-109.185,245.279 -130.088,214.639 -119.775,184.918C-103.449,137.863 -65.295,118.055 -23.221,83.393C18.851,48.732 38.478,10.533 37.111,-14.514C35.071,-51.823 17.033,-66.041 17.033,-66.041C25.508,-52.4 36.901,-11.775 17.638,23.494C-2.423,60.219 -37.118,86.459 -65.663,109.477C-101.951,138.726 -116.181,161.89 -123.021,183.619C-133.454,216.778 -112.841,248.827 -87.735,263.319C-75.73,270.251 -64.07,274.754 -52.994,275.213C-63.869,276.544 -76.234,274.601 -89.536,266.919C-124.772,246.576 -145.807,206.318 -118.466,158.962C-114.415,151.948 -109.765,144.748 -104.7,137.41C-70.153,95.962 -20.764,66.479 -2.221,37.139C19.794,2.299 17.646,-20.995 15.536,-23.927C16.428,-8.007 7.762,13.055 -1.114,27.315C-27.41,69.564 -66.491,83.894 -95.856,118.286C-101.373,124.747 -105.344,130.087 -108.365,134.708C-114.16,142.091 -119.708,149.79 -123.37,156.131C-154.627,210.272 -126.205,252.291 -92.371,271.828C-75.556,281.536 -57.823,283.79 -41.098,278.346C-20.867,271.759 -7.428,255.999 -3.708,247.619C-0.976,241.499 0.246,235.653 0.374,230.17C10.785,235.879 34.309,230.115 49.17,222.177C20.244,232.098 0,217.749 0,217.749"
            style="fill:rgb(238,253,255);fill-rule:nonzero;"/>
        </g>
        <g transform="matrix(6.03991,0,0,6.26206,2116.74,1864.91)">
            <path d="M0,-3.406C-14.117,10.504 -35.2,20.007 -54.788,24.298C-74.373,28.583 -98.716,25.937 -116.302,48.496C-91.526,16.779 -32.482,46.075 14.508,-4.16C34.376,-25.398 27.173,-50.472 18.112,-51.902C23.403,-29.448 14.12,-17.315 0,-3.406" style="fill:rgb(238,253,255);fill-rule:nonzero;"/>
        </g>
        <g transform="matrix(6.03991,0,0,6.26206,2073.43,1729.83)">
            <path d="M0,3.695C0.86,2.472 1.56,1.24 2.064,0C1.42,1.276 0.723,2.499 0,3.695" style="fill:rgb(238,253,255);fill-rule:nonzero;"/>
        </g>
        <g transform="matrix(6.03991,0,0,6.26206,1639,2266.94)">
            <path d="M0,33.158C15.662,30.077 18.049,9.636 8.094,2.175C2.861,-1.746 -5.023,-3.591 -11.349,3.407C-0.573,0.88 2.635,13.248 -2.96,18.518C-7.963,23.234 -24.651,18.547 -24.086,1.758C-31.126,13.283 -18.241,36.749 0,33.158"
            style="fill:rgb(238,253,255);fill-rule:nonzero;"/>
        </g>
        <g transform="matrix(6.03991,0,0,6.26206,1309.12,1257.34)">
            <path d="M0,101.235C36.538,70.224 85.107,72.401 112.236,35.958C123.264,21.141 123,4.14 120.442,0C115.613,15.941 106.142,29.077 98.391,37.376C66.534,71.472 34.674,66.867 0,101.235"
            style="fill:rgb(238,253,255);fill-rule:nonzero;"/>
        </g>
        <g transform="matrix(6.03991,0,0,6.26206,2077.98,1127.78)">
            <path d="M0,-22.137C-17.587,32.554 -67.047,69.61 -67.047,69.61C-51.815,61.67 -0.026,20.064 10.312,-26.833C18.316,-63.146 0.312,-83.951 -16.487,-91.747C-2.982,-78.248 10.519,-54.861 0,-22.137"
            style="fill:rgb(238,253,255);fill-rule:nonzero;"/>
        </g>
        <g transform="matrix(6.03991,0,0,6.26206,1735.3,1056.4)">
            <path d="M0,-4.701C-12.222,14.487 -55.889,68.386 -63.903,78.975C-41.993,58.153 -9.724,28.277 9.833,-1.307C21.844,-19.475 39.424,-69.038 26.576,-83.676C29.719,-54.864 9.636,-19.827 0,-4.701"
            style="fill:rgb(238,253,255);fill-rule:nonzero;"/>
        </g>
        <g transform="matrix(6.03991,0,0,6.26206,2195.47,1292.25)">
            <path d="M0,23.304C-28.487,80.64 -78.444,88.513 -78.444,88.513C-78.444,88.513 -26.935,81.157 4.252,31.084C17.674,9.541 21.36,-14.52 18.494,-29.154C15.219,-45.878 6.157,-57.195 -4.428,-65.209C1.058,-58.243 25.844,-28.713 0,23.304" style="fill:rgb(238,253,255);fill-rule:nonzero;"/>
        </g>
        <g transform="matrix(6.03991,0,0,6.26206,2294.96,2127.75)">
            <path d="M0,-121.526C0,-121.526 19.009,-96.479 -0.381,-53.666C-19.198,-12.133 -57.294,-7.792 -70.286,-4.841C-50.383,0 -6.534,-11.808 12.887,-60.839C27.844,-98.605 3.093,-118.98 0,-121.526"
            style="fill:rgb(238,253,255);fill-rule:nonzero;"/>
        </g>
        <g transform="matrix(6.03991,0,0,6.26206,2217.82,2056.68)">
            <path d="M0,23.935C-18.637,44.362 -49.086,37.813 -49.086,37.813C-42.406,42.049 -15.195,49.81 5.123,29.556C25.986,8.761 22.824,-14.447 16.619,-25.875C20.051,-18.594 17.714,4.526 0,23.935"
            style="fill:rgb(238,253,255);fill-rule:nonzero;"/>
        </g>
        <g transform="matrix(6.03991,0,0,6.26206,1140.04,906.592)">
            <path d="M0,139.608C2.489,134.684 5.125,128.577 7.959,120.575C23.065,77.95 15.93,36.942 39.372,-6.958C47.287,-21.773 61.193,-39.81 75.423,-46.997C71.83,-47.361 50.582,-37.567 31.422,-1.089C15.282,29.646 14.443,87.16 -4.179,137.804C-8.002,145.856 -11.911,153.484 -15.961,160.497C-43.299,207.853 -88.683,209.767 -123.919,189.422C-137.219,181.743 -145.082,172.01 -149.369,161.93C-143.431,171.288 -133.703,179.132 -121.703,186.061C-96.598,200.557 -58.535,202.385 -35.033,176.769C-19.639,159.984 -6.693,136.077 0.495,90.028C6.153,53.796 11.533,10.628 33.305,-25.103C54.218,-59.425 95.095,-69.871 111.148,-69.35C111.148,-69.35 89.819,-77.862 56.485,-60.974C34.111,-49.634 10.843,-13.537 1.859,40.23C-7.119,93.997 -5.198,136.943 -37.783,174.61C-58.366,198.402 -95.352,195.622 -118.529,183.044C-139.777,171.515 -152.44,154.949 -153.571,134.878C-152.691,123.055 -148.746,113.181 -145.534,108.772C-137.069,97.109 -125.852,92.882 -115.649,92.731C-120.513,93.238 -124.57,94.661 -127.081,96.237C-131.066,98.742 -137.292,102.585 -141.438,109.675C-150.619,123.354 -153.692,147.152 -135.43,165.872C-118.227,183.504 -77.246,199.999 -48.239,171.805C-27.434,151.579 -31.334,113.972 -34.785,95.138C-42.235,54.516 -40.249,13.603 -26.324,-16.362C-9.04,-53.544 26.167,-59.841 26.167,-59.841C13.527,-65.62 -17.051,-52.841 -29.708,-26.304C-44.888,5.522 -44.405,43.944 -40.628,76.933C-37.668,102.804 -30.071,137.035 -50.323,162.236C-71.902,189.082 -115.298,182.055 -133.754,163.131C-141.717,154.961 -146.333,142.547 -145.597,129.986C-145.577,130.271 -145.565,130.55 -145.54,130.841C-143.788,150.93 -131.597,162.7 -117.724,168.965C-102.639,175.771 -90.361,173.549 -82.6,171.366C-63.988,166.138 -53.194,146.328 -50.256,129.183C-44.806,97.341 -59.753,82.187 -65.162,62.767C-70.835,42.399 -72.614,19.289 -67.023,7.243C-80.22,31.205 -73.267,60.793 -62.666,90.072C-51.646,120.515 -60.847,159.732 -84.868,167.392C-113.306,176.456 -137.51,152.82 -141.661,139.933C-149.779,114.711 -126.211,91.511 -103.078,94.911C-102.103,95.139 -101.121,95.415 -100.135,95.724C-98.951,96.23 -97.834,96.783 -96.804,97.378C-85.062,104.16 -78.394,118.567 -86.429,132.481C-94.45,146.376 -111.948,150.608 -130.104,138.11C-105.744,159.38 -85.546,145.9 -78.727,134.094C-71.591,121.732 -74.976,107.035 -83.095,97.227C-91.827,85.499 -124.95,63.736 -126.988,40.514C-129.174,15.537 -116.093,4.078 -116.093,4.078C-116.093,4.078 -140.898,23.986 -133.083,48.654C-125.267,73.326 -104.507,81.512 -91.546,89.371C-90.146,89.793 -88.482,91.378 -86.862,93.324C-88.426,91.946 -90.096,90.731 -91.852,89.717C-105.033,82.107 -117.854,84.329 -126.312,87.54C-126.178,87.389 -126.104,87.298 -126.104,87.298C-126.104,87.298 -148.654,76.941 -154.524,46.926C-153.968,63.766 -147.196,87.02 -137.047,93.184C-141.73,96.037 -146.184,100.016 -150.118,105.444C-155.517,112.856 -162.445,132.373 -158.034,153.186C-154.386,170.394 -143.571,184.623 -126.754,194.331C-92.917,213.868 -42.314,217.47 -11.059,163.327C-7.395,156.983 -3.498,148.323 0,139.608"
            style="fill:rgb(238,253,255);fill-rule:nonzero;"/>
        </g>
        <g transform="matrix(6.03991,0,0,6.26206,836.846,1706.92)">
            <path d="M0,-159.473C-5.765,-166.607 -31.08,-160.306 -39.541,-132.479C-59.55,-66.664 -4.656,-30.182 -19.736,7.134C-8.996,-19.378 -23.453,-39.134 -29.539,-58.238C-35.618,-77.345 -37.929,-100.358 -32.939,-119.54C-27.951,-138.721 -22.088,-152.828 0,-159.473"
            style="fill:rgb(238,253,255);fill-rule:nonzero;"/>
        </g>
        <g transform="matrix(6.03991,0,0,6.26206,735.228,929.185)">
            <path d="M0,3.635C0.674,2.409 1.384,1.195 2.167,0C1.346,1.056 0.628,2.279 0,3.635"
            style="fill:rgb(238,253,255);fill-rule:nonzero;"/>
        </g>
        <g transform="matrix(6.03991,0,0,6.26206,539.577,1673.04)">
            <path d="M0,-0.294C2.901,-9.27 -2.643,-15.178 -8.651,-17.746C-20.092,-22.638 -36.602,-10.351 -31.441,4.753C-25.43,22.344 1.334,21.772 7.799,9.914C-6.459,18.799 -18.863,6.691 -17.281,0C-15.512,-7.483 -3.201,-10.887 0,-0.294" style="fill:rgb(238,253,255);fill-rule:nonzero;"/>
        </g>
        <g transform="matrix(6.03991,0,0,6.26206,1167.64,1706.47)">
            <path d="M0,-154.782C-4.861,-154.925 -19.717,-146.657 -27.035,-129.694C-45.031,-87.978 -18.859,-47.009 -27.449,0.143C-15.021,-47.071 -34.941,-72.359 -21.342,-116.995C-18.03,-127.861 -11.39,-142.631 0,-154.782"
            style="fill:rgb(238,253,255);fill-rule:nonzero;"/>
        </g>
        <g transform="matrix(6.03991,0,0,6.26206,1093.55,338.198)">
            <path d="M0,140.31C0,140.31 7.361,78.949 45.931,36.372C69.013,10.899 96.012,10.899 114.457,15.844C99.307,5.189 72.288,0 44.845,25.092C9.401,57.495 -0.742,123.146 0,140.31"
            style="fill:rgb(238,253,255);fill-rule:nonzero;"/>
        </g>
        <g transform="matrix(6.03991,0,0,6.26206,1463.29,1128.53)">
            <path d="M0,-44.503C-15.842,-12.774 -25.581,30.108 -32.659,59.495C-27.495,47.262 -2.654,-17.509 7.855,-37.687C16.139,-53.592 36.436,-88.507 62.963,-100.188C43.861,-103.998 9.728,-63.987 0,-44.503"
            style="fill:rgb(238,253,255);fill-rule:nonzero;"/>
        </g>
        <g transform="matrix(6.03991,0,0,6.26206,832.961,381.943)">
            <path d="M0,148.931C0,148.931 -18.159,101.732 17.253,48.392C49.374,0 87.344,6.702 96.118,7.971C83.887,2.808 69.554,0.619 53.436,6.143C39.328,10.983 20.334,26.203 8.384,48.598C-19.382,100.649 0,148.931 0,148.931"
            style="fill:rgb(238,253,255);fill-rule:nonzero;"/>
        </g>
        <g transform="matrix(6.03991,0,0,6.26206,548.98,480.704)">
            <path d="M0,131.861C-3.939,119.137 -19.229,83.974 7.334,46.913C34.716,8.711 65.912,12.65 65.912,12.65C62.16,11.246 32.14,0 6.91,31.834C-25.843,73.167 -14.142,117.046 0,131.861"
            style="fill:rgb(238,253,255);fill-rule:nonzero;"/>
        </g>
        <g transform="matrix(6.03991,0,0,6.26206,359.79,803.017)">
            <path d="M0,88.747C0,88.747 -20.894,65.651 -12.523,39.298C-4.571,14.252 14.283,0.668 22.305,0C9.305,0.34 -12.374,9.206 -19.954,37.668C-27.334,65.393 -7.007,85.079 0,88.747"
            style="fill:rgb(238,253,255);fill-rule:nonzero;"/>
        </g>
    </g>
</svg>
