<?xml version="1.0" encoding="UTF-8" standalone="no"?>
<!DOCTYPE svg PUBLIC "-//W3C//DTD SVG 1.1//EN" "http://www.w3.org/Graphics/SVG/1.1/DTD/svg11.dtd">
<svg width="100%" height="100%" viewBox="0 0 757 757" version="1.1" xmlns="http://www.w3.org/2000/svg" xmlns:xlink="http://www.w3.org/1999/xlink" xml:space="preserve" xmlns:serif="http://www.serif.com/" style="fill-rule:evenodd;clip-rule:evenodd;stroke-linejoin:round;stroke-miterlimit:1.41421;">
    <g transform="matrix(1,0,0,1,-4667.47,-481.141)">
        <g id="Artboard2" transform="matrix(0.209026,0,0,0.381866,3972.71,491.657)">
            <rect x="3323.79" y="-27.538" width="3620.93" height="1851.66" style="fill:none;"/>
            <g id="Shell" transform="matrix(19.9337,0,0,10.9113,-3253.96,-1313.66)">
                <g transform="matrix(0,169.121,169.121,0,375.87,117.793)">
                    <path d="M0.062,0.125C0.132,0.075 0.283,0.057 0.487,0.13C0.391,0.071 0.223,0.027 0.1,0.078C0.102,0.045 0.123,0.001 0.153,-0.019C0.206,-0.056 0.273,-0.072 0.357,-0.058C0.448,-0.042 0.505,-0.018 0.574,0.04C0.517,-0.039 0.355,-0.115 0.246,-0.079C0.255,-0.134 0.317,-0.199 0.412,-0.193C0.563,-0.184 0.609,-0.117 0.639,-0.08C0.612,-0.16 0.532,-0.206 0.444,-0.208C0.473,-0.252 0.542,-0.262 0.583,-0.259C0.649,-0.254 0.735,-0.199 0.75,-0.133C0.714,-0.095 0.695,-0.069 0.695,-0.027C0.695,0.022 0.733,0.069 0.786,0.069C0.826,0.069 0.889,0.038 0.871,-0.053C0.876,0.01 0.84,0.048 0.794,0.048C0.747,0.048 0.721,0.01 0.721,-0.029C0.721,-0.068 0.749,-0.127 0.82,-0.134C0.859,-0.138 0.99,-0.105 0.99,0.036C0.99,0.154 0.92,0.264 0.762,0.264C0.532,0.264 0.175,0.147 0.017,0.247C0.015,0.242 0.014,0.234 0.014,0.224C0.014,0.194 0.025,0.15 0.062,0.125Z" style="fill:url(#_Linear1);fill-rule:nonzero;"/>
                </g>
                <g transform="matrix(0,169.121,169.121,0,466.013,117.793)">
                    <path d="M0.017,-0.247C0.175,-0.147 0.532,-0.264 0.762,-0.264C0.92,-0.264 0.99,-0.154 0.99,-0.036C0.99,0.105 0.859,0.138 0.82,0.134C0.749,0.127 0.721,0.068 0.721,0.029C0.721,-0.01 0.747,-0.048 0.794,-0.048C0.84,-0.048 0.876,-0.01 0.871,0.053C0.889,-0.038 0.826,-0.069 0.786,-0.069C0.733,-0.069 0.695,-0.022 0.695,0.027C0.695,0.069 0.714,0.095 0.75,0.133C0.735,0.199 0.649,0.254 0.583,0.259C0.542,0.262 0.473,0.252 0.444,0.208C0.532,0.206 0.612,0.16 0.639,0.08C0.609,0.117 0.563,0.184 0.412,0.193C0.317,0.199 0.255,0.134 0.246,0.079C0.355,0.115 0.517,0.039 0.574,-0.04C0.505,0.018 0.448,0.042 0.357,0.058C0.273,0.072 0.206,0.056 0.153,0.019C0.123,-0.001 0.102,-0.045 0.1,-0.078C0.223,-0.027 0.391,-0.071 0.487,-0.13C0.283,-0.057 0.132,-0.075 0.062,-0.125C0.025,-0.15 0.014,-0.194 0.014,-0.224C0.014,-0.234 0.015,-0.242 0.017,-0.247Z" style="fill:url(#_Linear2);fill-rule:nonzero;"/>
                </g>
            </g>
        </g>
    </g>
    <defs>
        <linearGradient id="_Linear1" x1="0" y1="0" x2="1" y2="0" gradientUnits="userSpaceOnUse" gradientTransform="matrix(1,0,0,-1,0,0.00241626)"><stop offset="0" style="stop-color:rgb(0,174,197);stop-opacity:1"/><stop offset="1" style="stop-color:rgb(0,101,149);stop-opacity:1"/></linearGradient>
        <linearGradient id="_Linear2" x1="0" y1="0" x2="1" y2="0" gradientUnits="userSpaceOnUse" gradientTransform="matrix(1,0,0,-1,0,-0.00240693)"><stop offset="0" style="stop-color:rgb(0,174,197);stop-opacity:1"/><stop offset="1" style="stop-color:rgb(0,101,149);stop-opacity:1"/></linearGradient>
    </defs>
</svg>
