<?xml version="1.0" encoding="UTF-8" standalone="no"?>
<!DOCTYPE svg PUBLIC "-//W3C//DTD SVG 1.1//EN" "http://www.w3.org/Graphics/SVG/1.1/DTD/svg11.dtd">
<svg width="100%" height="100%" viewBox="0 0 3071 1769" version="1.1" xmlns="http://www.w3.org/2000/svg" xmlns:xlink="http://www.w3.org/1999/xlink" xml:space="preserve" xmlns:serif="http://www.serif.com/" style="fill-rule:evenodd;clip-rule:evenodd;stroke-linejoin:round;stroke-miterlimit:1.41421;">
    <g id="Artboard1" transform="matrix(1.17954,0,0,1.06628,-664.603,-454.095)">
        <rect x="563.443" y="425.868" width="2603.54" height="1658.3" style="fill:none;"/>
        <g transform="matrix(12.5551,0,0,13.1539,596.554,498.65)">
            <path d="M138,50C137,31 126,0 101.5,0C77,0 66,23 63.5,50C63.5,50 22,55.9 2.5,55.9C-0.5,59.4 0.5,65 5,70.5C1.5,74.5 5,82.5 9.5,86.5C6.5,90 11.5,95 17.5,99C16,104.5 31.86,107.256 36.5,107.5L168.5,107.5C172.548,107.5 183.5,103.5 181.5,99C187,96.5 194.5,91 190.5,86.5C197,81 200,72 195.5,70.5C200,64 199.914,58.83 197.414,56.33C177.414,56.33 138,50 138,50Z" style="fill:white;fill-rule:nonzero;"/>
        </g>
        <g id="Layer-1" serif:id="Layer 1" transform="matrix(3.53245,0,0,3.90766,376.943,85.4463)">
            <g transform="matrix(0,169.121,169.121,0,375.87,117.793)">
                <path d="M0.062,0.125C0.132,0.075 0.283,0.057 0.487,0.13C0.391,0.071 0.223,0.027 0.1,0.078C0.102,0.045 0.123,0.001 0.153,-0.019C0.206,-0.056 0.273,-0.072 0.357,-0.058C0.448,-0.042 0.505,-0.018 0.574,0.04C0.517,-0.039 0.355,-0.115 0.246,-0.079C0.255,-0.134 0.317,-0.199 0.412,-0.193C0.563,-0.184 0.609,-0.117 0.639,-0.08C0.612,-0.16 0.532,-0.206 0.444,-0.208C0.473,-0.252 0.542,-0.262 0.583,-0.259C0.649,-0.254 0.735,-0.199 0.75,-0.133C0.714,-0.095 0.695,-0.069 0.695,-0.027C0.695,0.022 0.733,0.069 0.786,0.069C0.826,0.069 0.889,0.038 0.871,-0.053C0.876,0.01 0.84,0.048 0.794,0.048C0.747,0.048 0.721,0.01 0.721,-0.029C0.721,-0.068 0.749,-0.127 0.82,-0.134C0.859,-0.138 0.99,-0.105 0.99,0.036C0.99,0.154 0.92,0.264 0.762,0.264C0.532,0.264 0.175,0.147 0.017,0.247C0.015,0.242 0.014,0.234 0.014,0.224C0.014,0.194 0.025,0.15 0.062,0.125Z" style="fill:url(#_Linear1);fill-rule:nonzero;"/>
            </g>
            <g transform="matrix(0,169.121,169.121,0,466.013,117.793)">
                <path d="M0.017,-0.247C0.175,-0.147 0.532,-0.264 0.762,-0.264C0.92,-0.264 0.99,-0.154 0.99,-0.036C0.99,0.105 0.859,0.138 0.82,0.134C0.749,0.127 0.721,0.068 0.721,0.029C0.721,-0.01 0.747,-0.048 0.794,-0.048C0.84,-0.048 0.876,-0.01 0.871,0.053C0.889,-0.038 0.826,-0.069 0.786,-0.069C0.733,-0.069 0.695,-0.022 0.695,0.027C0.695,0.069 0.714,0.095 0.75,0.133C0.735,0.199 0.649,0.254 0.583,0.259C0.542,0.262 0.473,0.252 0.444,0.208C0.532,0.206 0.612,0.16 0.639,0.08C0.609,0.117 0.563,0.184 0.412,0.193C0.317,0.199 0.255,0.134 0.246,0.079C0.355,0.115 0.517,0.039 0.574,-0.04C0.505,0.018 0.448,0.042 0.357,0.058C0.273,0.072 0.206,0.056 0.153,0.019C0.123,-0.001 0.102,-0.045 0.1,-0.078C0.223,-0.027 0.391,-0.071 0.487,-0.13C0.283,-0.057 0.132,-0.075 0.062,-0.125C0.025,-0.15 0.014,-0.194 0.014,-0.224C0.014,-0.234 0.015,-0.242 0.017,-0.247Z" style="fill:url(#_Linear2);fill-rule:nonzero;"/>
            </g>
            <g transform="matrix(1,0,0,1,305.822,317.321)">
                <path d="M0,92.898L0,0L11.218,0L11.218,82.759L84.866,82.759L84.866,92.898L0,92.898Z" style="fill:rgb(190,133,77);fill-rule:nonzero;"/>
            </g>
            <g transform="matrix(1,0,0,1,523.352,321.033)">
                <path d="M0,89.186L0,15.331L-53.248,92.898L-106.276,15.331L-106.276,89.186L-117.491,89.186L-117.491,-3.712L-105.774,-3.712L-53.248,75.712L-0.254,-3.712L11.215,-3.712L11.215,89.186L0,89.186Z" style="fill:rgb(190,133,77);fill-rule:nonzero;"/>
            </g>
            <g transform="matrix(1,0,0,1,635.814,352.003)">
                <path d="M0,19.831C-22.279,12.487 -37.846,11.799 -46.629,16.17L-25.359,-16.642L-4.346,15.777C-2.66,16.281 -0.947,16.813 0.805,17.388C4.029,18.452 7.555,18.993 11.295,18.993C11.307,18.993 11.318,18.99 11.328,18.99L-25.359,-38.384L-87.127,58.215L-73.873,58.215L-57.9,33.563C-39.736,18.316 -15.832,28.982 -0.227,30.814C22.643,33.503 48.193,19.16 50.891,4.808C46.404,11.085 21.006,26.759 0,19.831M7.238,33.648L23.158,58.215L36.408,58.215L19.617,31.946C15.576,32.926 11.408,33.515 7.238,33.648" style="fill:rgb(190,133,77);fill-rule:nonzero;"/>
            </g>
            <g transform="matrix(1,0,0,1,155.184,367.026)">
                <path d="M0,-10.215C2.698,4.137 28.248,18.48 51.114,15.791C66.72,13.959 90.625,3.293 108.788,18.54L124.762,43.192L138.019,43.192L76.248,-53.407L39.562,3.967C39.571,3.967 39.585,3.97 39.599,3.97C43.331,3.97 46.861,3.429 50.083,2.365C51.836,1.79 53.552,1.258 55.236,0.754L76.248,-31.665L97.517,1.147C88.736,-3.224 73.17,-2.536 50.887,4.808C29.885,11.736 4.488,-3.938 0,-10.215M31.275,16.923L14.477,43.192L27.733,43.192L43.656,18.625C39.48,18.492 35.313,17.903 31.275,16.923" style="fill:rgb(190,133,77);fill-rule:nonzero;"/>
            </g>
            <g transform="matrix(1,0,0,1,224.705,432.898)">
                <path d="M0,14.963L0,8.098L-7.254,8.098L-7.254,14.963L-9.137,14.963L-9.137,0L-7.254,0L-7.254,6.313L0,6.313L0,0L1.883,0L1.883,14.963L0,14.963Z" style="fill:rgb(0,101,149);fill-rule:nonzero;"/>
            </g>
            <g transform="matrix(1,0,0,1,215.862,433.191)">
                <path d="M0,14.375L0,0L1.294,0L1.294,6.312L9.137,6.312L9.137,0L10.431,0L10.431,14.375L9.137,14.375L9.137,7.51L1.294,7.51L1.294,14.375L0,14.375Z" style="fill:rgb(0,101,149);fill-rule:nonzero;"/>
            </g>
            <g transform="matrix(1,0,0,1,243.524,438.564)">
                <path d="M0,3.631L-2.679,-3.361L-5.411,3.631L0,3.631ZM2.22,9.297L0.685,5.416L-6.059,5.416L-7.571,9.297L-9.542,9.297L-3.616,-5.666L-1.702,-5.666L4.267,9.297L2.22,9.297Z" style="fill:rgb(0,101,149);fill-rule:nonzero;"/>
            </g>
            <g transform="matrix(1,0,0,1,243.952,438.267)">
                <path d="M0,4.223L-3.103,-3.877L-6.269,4.223L0,4.223ZM-9.536,9.299L-3.842,-5.076L-2.33,-5.076L3.403,9.299L1.993,9.299L0.459,5.42L-6.688,5.42L-8.199,9.299L-9.536,9.299Z" style="fill:rgb(0,101,149);fill-rule:nonzero;"/>
            </g>
            <g transform="matrix(1,0,0,1,259.917,440.933)">
                <path d="M0,-1.107C2.257,-1.107 3.353,-1.949 3.353,-3.677C3.353,-5.408 2.257,-6.252 0,-6.252L-2.848,-6.252L-2.848,-1.107L0,-1.107ZM-4.731,6.928L-4.731,-8.035L-0.835,-8.035C3.259,-8.035 5.337,-6.568 5.337,-3.677C5.337,-0.787 3.259,0.68 -0.835,0.68L-2.848,0.68L-2.848,6.928L-4.731,6.928Z" style="fill:rgb(0,101,149);fill-rule:nonzero;"/>
            </g>
            <g transform="matrix(1,0,0,1,256.775,440.636)">
                <path d="M0,-0.515L3.143,-0.515C5.077,-0.515 6.79,-1.132 6.79,-3.38C6.79,-5.632 5.077,-6.245 3.143,-6.245L0,-6.245L0,-0.515ZM-1.297,6.93L-1.297,-7.445L2.308,-7.445C5.077,-7.445 8.183,-6.806 8.183,-3.38C8.183,0.042 5.077,0.678 2.308,0.678L0,0.678L0,6.93L-1.297,6.93Z" style="fill:rgb(0,101,149);fill-rule:nonzero;"/>
            </g>
            <g transform="matrix(1,0,0,1,278.058,440.933)">
                <path d="M0,-1.107C2.253,-1.107 3.349,-1.949 3.349,-3.677C3.349,-5.408 2.253,-6.252 0,-6.252L-2.852,-6.252L-2.852,-1.107L0,-1.107ZM-4.734,6.928L-4.734,-8.035L-0.838,-8.035C3.256,-8.035 5.328,-6.568 5.328,-3.677C5.328,-0.787 3.256,0.68 -0.838,0.68L-2.852,0.68L-2.852,6.928L-4.734,6.928Z" style="fill:rgb(0,101,149);fill-rule:nonzero;"/>
            </g>
            <g transform="matrix(1,0,0,1,274.912,440.636)">
                <path d="M0,-0.515L3.146,-0.515C5.077,-0.515 6.79,-1.132 6.79,-3.38C6.79,-5.632 5.077,-6.245 3.146,-6.245L0,-6.245L0,-0.515ZM-1.294,6.93L-1.294,-7.445L2.308,-7.445C5.077,-7.445 8.18,-6.806 8.18,-3.38C8.18,0.042 5.077,0.678 2.308,0.678L0,0.678L0,6.93L-1.294,6.93Z" style="fill:rgb(0,101,149);fill-rule:nonzero;"/>
            </g>
            <g transform="matrix(1,0,0,1,0,285.424)">
                <rect x="291.6" y="147.418" width="1.883" height="15.02" style="fill:rgb(0,101,149);"/>
            </g>
            <g transform="matrix(1,0,0,1,0,285.42)">
                <rect x="291.892" y="147.714" width="1.297" height="14.432" style="fill:rgb(0,101,149);"/>
            </g>
            <g transform="matrix(1,0,0,1,312.04,432.898)">
                <path d="M0,14.963L-7.348,3.215L-7.348,14.963L-9.23,14.963L-9.23,0L-7.299,0L0.204,11.977L0.204,0L2.086,0L2.086,14.963L0,14.963Z" style="fill:rgb(0,101,149);fill-rule:nonzero;"/>
            </g>
            <g transform="matrix(1,0,0,1,303.103,447.566)">
                <path d="M0,-14.375L1.473,-14.375L9.395,-1.732L9.434,-1.732L9.434,-14.375L10.728,-14.375L10.728,0L9.097,0L1.331,-12.42L1.294,-12.42L1.294,0L0,0L0,-14.375Z" style="fill:rgb(0,101,149);fill-rule:nonzero;"/>
            </g>
            <g transform="matrix(1,0,0,1,323.359,432.898)">
                <path d="M0,14.963L0,0L9.125,0L9.125,1.783L1.883,1.783L1.883,6.354L8.848,6.354L8.848,8.133L1.883,8.133L1.883,13.18L9.426,13.18L9.426,14.963L0,14.963Z" style="fill:rgb(0,101,149);fill-rule:nonzero;"/>
            </g>
            <g transform="matrix(1,0,0,1,323.651,433.191)">
                <path d="M0,14.375L0,0L8.539,0L8.539,1.199L1.296,1.199L1.296,6.354L8.262,6.354L8.262,7.547L1.296,7.547L1.296,13.18L8.839,13.18L8.839,14.375L0,14.375Z" style="fill:rgb(0,101,149);fill-rule:nonzero;"/>
            </g>
            <g transform="matrix(1,0,0,1,345.188,432.599)">
                <path d="M0,15.563C-2.542,15.563 -4.51,13.7 -4.575,11.233L-4.581,10.93L-2.596,10.93L-2.591,11.219C-2.557,12.94 -1.475,13.776 0.719,13.776C2.254,13.776 3.887,12.913 3.887,11.307C3.887,10.225 3.256,9.54 1.84,9.075L1.053,8.823C-1.178,8.124 -4.233,7.165 -4.233,4.178C-4.233,1.465 -1.724,0 0.637,0C2.004,0 5.229,0.362 5.609,3.688L5.648,4.016L3.635,4.016L3.63,3.727C3.593,2.122 2.07,1.786 0.795,1.786C-0.427,1.786 -2.254,2.374 -2.254,3.999C-2.254,5.727 -0.6,6.264 1.311,6.887C3.449,7.584 5.87,8.374 5.87,11.184C5.87,14.008 3.789,15.563 0,15.563" style="fill:rgb(0,101,149);fill-rule:nonzero;"/>
            </g>
            <g transform="matrix(1,0,0,1,345.188,432.894)">
                <path d="M0,14.973C-2.288,14.973 -4.219,13.299 -4.278,10.93L-2.885,10.93C-2.843,13.137 -1.212,13.776 0.719,13.776C2.33,13.776 4.182,12.84 4.182,11.012C4.182,9.577 3.146,8.899 1.934,8.5C-0.396,7.725 -3.938,6.989 -3.938,3.883C-3.938,1.373 -1.631,0 0.637,0C2.528,0 5,0.657 5.317,3.424L3.924,3.424C3.885,1.655 2.271,1.196 0.795,1.196C-0.696,1.196 -2.548,1.952 -2.548,3.703C-2.548,7.784 5.575,5.932 5.575,10.889C5.575,14.016 2.891,14.973 0,14.973" style="fill:rgb(0,101,149);fill-rule:nonzero;"/>
            </g>
            <g transform="matrix(1,0,0,1,363.326,432.599)">
                <path d="M0,15.563C-2.542,15.563 -4.51,13.7 -4.573,11.233L-4.581,10.93L-2.597,10.93L-2.591,11.219C-2.557,12.94 -1.475,13.776 0.719,13.776C2.253,13.776 3.887,12.913 3.887,11.307C3.887,10.225 3.256,9.54 1.84,9.075L1.053,8.823C-1.178,8.124 -4.233,7.165 -4.233,4.178C-4.233,1.465 -1.725,0 0.637,0C2.004,0 5.229,0.362 5.609,3.688L5.648,4.016L3.638,4.016L3.629,3.727C3.593,2.122 2.069,1.786 0.795,1.786C-0.428,1.786 -2.254,2.374 -2.254,3.999C-2.254,5.727 -0.601,6.264 1.311,6.887C3.448,7.584 5.869,8.374 5.869,11.184C5.869,14.008 3.788,15.563 0,15.563" style="fill:rgb(0,101,149);fill-rule:nonzero;"/>
            </g>
            <g transform="matrix(1,0,0,1,363.326,432.894)">
                <path d="M0,14.973C-2.288,14.973 -4.219,13.299 -4.278,10.93L-2.882,10.93C-2.843,13.137 -1.212,13.776 0.719,13.776C2.33,13.776 4.182,12.84 4.182,11.012C4.182,9.577 3.146,8.899 1.934,8.5C-0.396,7.725 -3.938,6.989 -3.938,3.883C-3.938,1.373 -1.631,0 0.637,0C2.528,0 5,0.657 5.317,3.424L3.924,3.424C3.884,1.655 2.271,1.196 0.795,1.196C-0.697,1.196 -2.545,1.952 -2.545,3.703C-2.545,7.784 5.578,5.932 5.578,10.889C5.578,14.016 2.891,14.973 0,14.973" style="fill:rgb(0,101,149);fill-rule:nonzero;"/>
            </g>
            <g transform="matrix(1,0,0,1,401.336,432.898)">
                <path d="M0,14.963L0,8.098L-7.254,8.098L-7.254,14.963L-9.137,14.963L-9.137,0L-7.254,0L-7.254,6.313L0,6.313L0,0L1.883,0L1.883,14.963L0,14.963Z" style="fill:rgb(0,101,149);fill-rule:nonzero;"/>
            </g>
            <g transform="matrix(1,0,0,1,392.494,433.191)">
                <path d="M0,14.375L0,0L1.294,0L1.294,6.312L9.137,6.312L9.137,0L10.434,0L10.434,14.375L9.137,14.375L9.137,7.51L1.294,7.51L1.294,14.375L0,14.375Z" style="fill:rgb(0,101,149);fill-rule:nonzero;"/>
            </g>
            <g transform="matrix(1,0,0,1,420.163,438.564)">
                <path d="M0,3.631L-2.685,-3.361L-5.417,3.631L0,3.631ZM2.214,9.297L0.679,5.416L-6.065,5.416L-7.577,9.297L-9.548,9.297L-3.616,-5.666L-1.708,-5.666L4.261,9.297L2.214,9.297Z" style="fill:rgb(0,101,149);fill-rule:nonzero;"/>
            </g>
            <g transform="matrix(1,0,0,1,420.589,438.267)">
                <path d="M0,4.223L-3.108,-3.877L-6.274,4.223L0,4.223ZM-9.539,9.299L-3.842,-5.076L-2.333,-5.076L3.401,9.299L1.987,9.299L0.453,5.42L-6.69,5.42L-8.205,9.299L-9.539,9.299Z" style="fill:rgb(0,101,149);fill-rule:nonzero;"/>
            </g>
            <g transform="matrix(1,0,0,1,436.236,441.529)">
                <path d="M0,-2.299C2.006,-2.299 3.807,-2.473 3.807,-4.572C3.807,-6.463 2.566,-6.852 0.707,-6.852L-2.471,-6.848L-2.471,-2.299L0,-2.299ZM4.195,6.332L4.125,6.137C3.775,5.156 3.691,4.121 3.611,3.119C3.322,-0.11 3.193,-0.514 0.797,-0.514L-2.471,-0.514L-2.471,6.332L-4.354,6.332L-4.354,-8.631L0.637,-8.631C1.82,-8.631 2.98,-8.569 4.178,-7.83C5.234,-7.195 5.789,-6.067 5.789,-4.572C5.789,-3.195 5.008,-2.086 3.648,-1.49C5.021,-0.889 5.293,0.465 5.43,1.724C5.494,2.322 5.539,2.838 5.58,3.291C5.689,4.576 5.75,5.285 6.141,5.877L6.439,6.332L4.195,6.332Z" style="fill:rgb(0,101,149);fill-rule:nonzero;"/>
            </g>
            <g transform="matrix(1,0,0,1,436.236,441.232)">
                <path d="M0,-1.707C1.83,-1.707 4.1,-1.828 4.1,-4.275C4.1,-7.043 1.514,-6.842 0.141,-6.842L-2.764,-6.842L-2.764,-1.707L0,-1.707ZM-2.764,6.334L-4.059,6.334L-4.059,-8.041L0.637,-8.041C1.893,-8.041 2.93,-7.959 4.021,-7.281C5.02,-6.684 5.498,-5.65 5.498,-4.275C5.498,-2.723 4.402,-1.607 2.729,-1.191L2.729,-1.148C4.557,-0.852 4.957,0.383 5.135,2.053C5.396,4.383 5.316,5.459 5.896,6.334L4.402,6.334C4.059,5.377 3.982,4.363 3.904,3.348C3.605,0.063 3.404,-0.512 0.797,-0.512L-2.764,-0.512L-2.764,6.334Z" style="fill:rgb(0,101,149);fill-rule:nonzero;"/>
            </g>
            <g transform="matrix(1,0,0,1,464.67,432.898)">
                <path d="M0,14.963L0,2.783L-5.045,14.963L-6.73,14.963L-11.771,2.84L-11.771,14.963L-13.654,14.963L-13.654,0L-11.098,0L-5.895,12.08L-0.572,0L1.883,0L1.883,14.963L0,14.963Z" style="fill:rgb(0,101,149);fill-rule:nonzero;"/>
            </g>
            <g transform="matrix(1,0,0,1,451.309,433.191)">
                <path d="M0,14.375L0,0L2.07,0L7.467,12.523L12.982,0L14.949,0L14.949,14.375L13.654,14.375L13.654,1.096L13.617,1.096L8.117,14.375L6.83,14.375L1.332,1.158L1.295,1.158L1.295,14.375L0,14.375Z" style="fill:rgb(0,101,149);fill-rule:nonzero;"/>
            </g>
            <g transform="matrix(1,0,0,1,481.887,446.377)">
                <path d="M0,-11.992C-3.482,-11.992 -4.719,-8.894 -4.719,-5.996C-4.719,-3.099 -3.482,-0.002 0,-0.002C3.484,-0.002 4.727,-3.099 4.727,-5.996C4.727,-8.894 3.484,-11.992 0,-11.992M0,1.785C-4.139,1.785 -6.707,-1.197 -6.707,-5.996C-6.707,-10.795 -4.139,-13.777 0,-13.777C4.137,-13.777 6.705,-10.795 6.705,-5.996C6.705,-1.197 4.137,1.785 0,1.785" style="fill:rgb(0,101,149);fill-rule:nonzero;"/>
            </g>
            <g transform="matrix(1,0,0,1,481.887,434.092)">
                <path d="M0,12.578C3.582,12.578 5.021,9.435 5.021,6.289C5.021,3.14 3.582,-0.002 0,-0.002C-3.58,-0.002 -5.016,3.14 -5.016,6.289C-5.016,9.435 -3.58,12.578 0,12.578M0,13.775C-4.119,13.775 -6.41,10.765 -6.41,6.289C-6.41,1.81 -4.119,-1.197 0,-1.197C4.123,-1.197 6.41,1.81 6.41,6.289C6.41,10.765 4.123,13.775 0,13.775" style="fill:rgb(0,101,149);fill-rule:nonzero;"/>
            </g>
            <g transform="matrix(1,0,0,1,506.375,432.898)">
                <path d="M0,14.963L-7.346,3.215L-7.346,14.963L-9.229,14.963L-9.229,0L-7.301,0L0.205,11.977L0.205,0L2.088,0L2.088,14.963L0,14.963Z" style="fill:rgb(0,101,149);fill-rule:nonzero;"/>
            </g>
            <g transform="matrix(1,0,0,1,497.439,447.566)">
                <path d="M0,-14.375L1.473,-14.375L9.393,-1.732L9.436,-1.732L9.436,-14.375L10.729,-14.375L10.729,0L9.098,0L1.332,-12.42L1.295,-12.42L1.295,0L0,0L0,-14.375Z" style="fill:rgb(0,101,149);fill-rule:nonzero;"/>
            </g>
            <g transform="matrix(1,0,0,1,521.113,432.898)">
                <path d="M0,14.963L0,8.459L-5.541,0L-3.189,0L1.053,6.693L5.291,0L7.387,0L1.838,8.578L1.883,14.963L0,14.963Z" style="fill:rgb(0,101,149);fill-rule:nonzero;"/>
            </g>
            <g transform="matrix(1,0,0,1,521.41,439.4)">
                <path d="M0,1.957L-5.295,-6.209L-3.645,-6.209L0.756,0.74L5.152,-6.209L6.547,-6.209L1.293,1.914L1.293,8.166L0,8.166L0,1.957Z" style="fill:rgb(0,101,149);fill-rule:nonzero;"/>
            </g>
            <g transform="matrix(1,0,0,1,559.398,432.898)">
                <path d="M0,14.963L0,8.098L-7.254,8.098L-7.254,14.963L-9.137,14.963L-9.137,0L-7.254,0L-7.254,6.313L0,6.313L0,0L1.883,0L1.883,14.963L0,14.963Z" style="fill:rgb(0,101,149);fill-rule:nonzero;"/>
            </g>
            <g transform="matrix(1,0,0,1,550.553,433.191)">
                <path d="M0,14.375L0,0L1.295,0L1.295,6.312L9.141,6.312L9.141,0L10.434,0L10.434,14.375L9.141,14.375L9.141,7.51L1.295,7.51L1.295,14.375L0,14.375Z" style="fill:rgb(0,101,149);fill-rule:nonzero;"/>
            </g>
            <g transform="matrix(1,0,0,1,576.678,446.377)">
                <path d="M0,-11.992C-3.482,-11.992 -4.727,-8.894 -4.727,-5.996C-4.727,-3.099 -3.482,-0.002 0,-0.002C3.479,-0.002 4.719,-3.099 4.719,-5.996C4.719,-8.894 3.479,-11.992 0,-11.992M0,1.785C-4.137,1.785 -6.707,-1.197 -6.707,-5.996C-6.707,-10.795 -4.137,-13.777 0,-13.777C4.137,-13.777 6.705,-10.795 6.705,-5.996C6.705,-1.197 4.137,1.785 0,1.785" style="fill:rgb(0,101,149);fill-rule:nonzero;"/>
            </g>
            <g transform="matrix(1,0,0,1,576.678,434.092)">
                <path d="M0,12.578C3.584,12.578 5.014,9.435 5.014,6.289C5.014,3.14 3.584,-0.002 0,-0.002C-3.584,-0.002 -5.02,3.14 -5.02,6.289C-5.02,9.435 -3.584,12.578 0,12.578M0,13.775C-4.123,13.775 -6.41,10.765 -6.41,6.289C-6.41,1.81 -4.123,-1.197 0,-1.197C4.119,-1.197 6.41,1.81 6.41,6.289C6.41,10.765 4.119,13.775 0,13.775" style="fill:rgb(0,101,149);fill-rule:nonzero;"/>
            </g>
            <g transform="matrix(1,0,0,1,605.688,432.898)">
                <path d="M0,14.963L0,2.783L-5.043,14.963L-6.727,14.963L-11.773,2.84L-11.773,14.963L-13.656,14.963L-13.656,0L-11.1,0L-5.893,12.08L-0.574,0L1.883,0L1.883,14.963L0,14.963Z" style="fill:rgb(0,101,149);fill-rule:nonzero;"/>
            </g>
            <g transform="matrix(1,0,0,1,592.326,433.191)">
                <path d="M0,14.375L0,0L2.07,0L7.467,12.523L12.979,0L14.949,0L14.949,14.375L13.656,14.375L13.656,1.096L13.619,1.096L8.121,14.375L6.832,14.375L1.334,1.158L1.297,1.158L1.297,14.375L0,14.375Z" style="fill:rgb(0,101,149);fill-rule:nonzero;"/>
            </g>
            <g transform="matrix(1,0,0,1,616.898,432.898)">
                <path d="M0,14.963L0,0L9.123,0L9.123,1.783L1.883,1.783L1.883,6.354L8.85,6.354L8.85,8.133L1.883,8.133L1.883,13.18L9.424,13.18L9.424,14.963L0,14.963Z" style="fill:rgb(0,101,149);fill-rule:nonzero;"/>
            </g>
            <g transform="matrix(1,0,0,1,617.191,433.191)">
                <path d="M0,14.375L0,0L8.539,0L8.539,1.199L1.293,1.199L1.293,6.354L8.262,6.354L8.262,7.547L1.293,7.547L1.293,13.18L8.84,13.18L8.84,14.375L0,14.375Z" style="fill:rgb(0,101,149);fill-rule:nonzero;"/>
            </g>
            <g transform="matrix(-1,-0,-0,1,759.125,285.148)">
                <rect x="378.913" y="147.86" width="1.299" height="14.412" style="fill:rgb(199,177,139);"/>
            </g>
            <g transform="matrix(-1,-0,-0,1,1075.95,285.148)">
                <rect x="537.324" y="147.86" width="1.301" height="14.412" style="fill:rgb(199,177,139);"/>
            </g>
        </g>
    </g>
    <defs>
        <linearGradient id="_Linear1" x1="0" y1="0" x2="1" y2="0" gradientUnits="userSpaceOnUse" gradientTransform="matrix(1,0,0,-1,0,0.00241626)"><stop offset="0" style="stop-color:rgb(0,174,197);stop-opacity:1"/><stop offset="1" style="stop-color:rgb(0,101,149);stop-opacity:1"/></linearGradient>
        <linearGradient id="_Linear2" x1="0" y1="0" x2="1" y2="0" gradientUnits="userSpaceOnUse" gradientTransform="matrix(1,0,0,-1,0,-0.00240693)"><stop offset="0" style="stop-color:rgb(0,174,197);stop-opacity:1"/><stop offset="1" style="stop-color:rgb(0,101,149);stop-opacity:1"/></linearGradient>
    </defs>
</svg>
