<svg
  xmlns="http://www.w3.org/2000/svg"
  fill-rule="evenodd"
  stroke-linejoin="round"
  stroke-miterlimit="2"
  clip-rule="evenodd"
  viewBox="0 0 512 128">

  <defs>
    <filter
      id="innershadow"
      x0="-50%"
      y0="-50%"
      width="200%"
      height="200%"
    >
      <feGaussianBlur
        in="SourceAlpha"
        stdDeviation="8"
        result="blur"/>
      <feOffset
        dy="0"
        dx="0"
      />
      <feComposite
        in2="SourceAlpha"
        operator="arithmetic"
        k2="-1"
        k3="1"
        result="shadowDiff"
      />
      <feFlood
        flood-color="black"
        flood-opacity="0.5"
      />
      <feComposite
        in2="shadowDiff"
        operator="in"
      />
      <feComposite
        in2="SourceGraphic"
        operator="over"
      />
    </filter>
    <pattern
      id="DiamondDots"
      patternUnits="userSpaceOnUse"
      x="0"
      y="0"
      width="46"
      height="46"
      fill-rule="evenodd"
      stroke-linejoin="round"
      stroke-miterlimit="02"
      clip-rule="evenodd"
      viewBox="0 0 11.5 11.5"
    >
      <path fill="none" d="M0 0h11.52v11.52H0z"/>
      <clipPath id="a">
      <path d="M0 0h11.52v11.52H0z"/>
      </clipPath>
      <g clip-path="url(#a)">
        <path
          fill="#ffffff"
          d="M0 0h11.52v11.52H0z"
        />
        <path
          fill="#f6f6f6"
          d="M5.416 5.775c0-.182.148-.331.331-.331.182 0 .331.149.331.331 0 .183-.149.331-.331.331-.183 0-.331-.148-.331-.331zM6.127 6.487c0-.183.148-.331.331-.331.183 0 .331.148.331.331 0 .182-.148.33-.331.33-.183 0-.331-.148-.331-.33zM6.126 5.065c0-.182.148-.33.331-.33.182 0 .331.148.331.33 0 .183-.149.331-.331.331-.183 0-.331-.148-.331-.331zM6.841 4.35c0-.183.149-.331.331-.331.183 0 .331.148.331.331 0 .182-.148.331-.331.331-.182 0-.331-.149-.331-.331zM7.557 3.634c0-.183.148-.331.331-.331.183 0 .331.148.331.331 0 .183-.148.331-.331.331-.183 0-.331-.148-.331-.331zM8.273 2.918c0-.182.148-.331.331-.331.182 0 .331.149.331.331 0 .183-.149.331-.331.331-.183 0-.331-.148-.331-.331zM8.989 2.203c0-.183.148-.331.331-.331.182 0 .33.148.33.331 0 .182-.148.331-.33.331-.183 0-.331-.149-.331-.331zM9.704 1.487c0-.183.149-.331.331-.331.183 0 .331.148.331.331 0 .182-.148.331-.331.331-.182 0-.331-.149-.331-.331zM10.42.771c0-.183.148-.331.331-.331.183 0 .331.148.331.331 0 .183-.148.331-.331.331-.183 0-.331-.148-.331-.331zM6.838 7.198c0-.183.148-.331.331-.331.183 0 .331.148.331.331 0 .182-.148.331-.331.331-.183 0-.331-.149-.331-.331zM7.549 7.909c0-.183.149-.331.331-.331.183 0 .331.148.331.331 0 .183-.148.331-.331.331-.182 0-.331-.148-.331-.331zM8.26 8.62c0-.183.149-.331.331-.331.183 0 .331.148.331.331 0 .183-.148.331-.331.331-.182 0-.331-.148-.331-.331zM8.972 9.331c0-.182.148-.331.331-.331.182 0 .33.149.33.331 0 .183-.148.331-.33.331-.183 0-.331-.148-.331-.331zM9.683 10.042c0-.182.148-.331.331-.331.182 0 .331.149.331.331 0 .183-.149.331-.331.331-.183 0-.331-.148-.331-.331zM10.394 10.754c0-.183.148-.331.331-.331.183 0 .331.148.331.331 0 .182-.148.33-.331.33-.183 0-.331-.148-.331-.33zM4.707 6.484c0-.182.148-.331.331-.331.182 0 .331.149.331.331 0 .183-.149.331-.331.331-.183 0-.331-.148-.331-.331zM4 7.191c0-.183.149-.331.331-.331.183 0 .331.148.331.331 0 .182-.148.331-.331.331-.182 0-.331-.149-.331-.331zM3.294 7.897c0-.183.148-.331.331-.331.183 0 .331.148.331.331 0 .183-.148.331-.331.331-.183 0-.331-.148-.331-.331zM2.588 8.604c0-.183.148-.331.331-.331.182 0 .331.148.331.331 0 .182-.149.33-.331.33-.183 0-.331-.148-.331-.33zM1.881 9.31c0-.183.149-.331.331-.331.183 0 .331.148.331.331 0 .183-.148.331-.331.331-.182 0-.331-.148-.331-.331zM1.175 10.016c0-.182.148-.331.331-.331.182 0 .331.149.331.331 0 .183-.149.331-.331.331-.183 0-.331-.148-.331-.331zM.468 10.723c0-.183.149-.331.331-.331.183 0 .331.148.331.331 0 .182-.148.331-.331.331-.182 0-.331-.149-.331-.331zM-.331 11.52c0-.183.148-.331.331-.331.183 0 .331.148.331.331 0 .183-.148.331-.331.331-.183 0-.331-.148-.331-.331zM11.189 11.52c0-.183.148-.331.331-.331.183 0 .331.148.331.331 0 .183-.148.331-.331.331-.183 0-.331-.148-.331-.331zM11.189 0c0-.183.148-.331.331-.331.183 0 .331.148.331.331 0 .183-.148.331-.331.331-.183 0-.331-.148-.331-.331zM.433.805c0-.183.149-.331.331-.331.183 0 .331.148.331.331 0 .182-.148.331-.331.331-.182 0-.331-.149-.331-.331zM-.331 0c0-.183.148-.331.331-.331.183 0 .331.148.331.331C.331.183.183.331 0 .331-.183.331-.331.183-.331 0zM1.144 1.516c0-.183.148-.331.331-.331.183 0 .331.148.331.331 0 .182-.148.331-.331.331-.183 0-.331-.149-.331-.331zM1.855 2.226c0-.182.148-.33.331-.33.183 0 .331.148.331.33 0 .183-.148.331-.331.331-.183 0-.331-.148-.331-.331zM2.566 2.937c0-.182.148-.331.331-.331.183 0 .331.149.331.331 0 .183-.148.331-.331.331-.183 0-.331-.148-.331-.331zM3.277 3.648c0-.182.148-.331.331-.331.183 0 .331.149.331.331 0 .183-.148.331-.331.331-.183 0-.331-.148-.331-.331zM3.988 4.359c0-.182.148-.331.331-.331.183 0 .331.149.331.331 0 .183-.148.331-.331.331-.183 0-.331-.148-.331-.331zM4.699 5.07c0-.182.148-.331.331-.331.183 0 .331.149.331.331 0 .183-.148.331-.331.331-.183 0-.331-.148-.331-.331z"
        />
      </g>
    </pattern>
    <pattern
      id="DiamondDots2"
      patternUnits="userSpaceOnUse"
      x="50%"
      y="50%"
      width="32"
      height="32"
      viewBox="0 0 32 32"
    >
      <path fill="#f4f4f4" d="M0 0h32v32H0z"/>
      <g fill="#ffffff">
        <circle cx="18" cy="18" r="1"/>
        <circle cx="20" cy="20" r="1"/>
        <circle cx="22" cy="22" r="1"/>
        <circle cx="24" cy="24" r="1"/>
        <circle cx="26" cy="26" r="1"/>
        <circle cx="28" cy="28" r="1"/>
        <circle cx="30" cy="30" r="1"/>
        <path d="M32 32h-1c0-.552.448-1 1-1v1z"/>
        <circle cx="14" cy="18" r="1"/>
        <circle cx="12" cy="20" r="1"/>
        <circle cx="10" cy="22" r="1"/>
        <circle cx="8" cy="24" r="1"/>
        <circle cx="6" cy="26" r="1"/>
        <circle cx="4" cy="28" r="1"/>
        <circle cx="2" cy="30" r="1"/>
        <path d="M0 31c.552 0 1 .448 1 1H0v-1z"/>
        <circle cx="18" cy="14" r="1"/>
        <circle cx="20" cy="12" r="1"/>
        <circle cx="22" cy="10" r="1"/>
        <circle cx="24" cy="8" r="1"/>
        <circle cx="26" cy="6" r="1"/>
        <circle cx="28" cy="4" r="1"/>
        <circle cx="30" cy="2" r="1"/>
        <path d="M32 0v1c-.552 0-1-.448-1-1h1z"/>
        <circle cx="14" cy="14" r="1"/>
        <circle cx="12" cy="12" r="1"/>
        <circle cx="10" cy="10" r="1"/>
        <circle cx="8" cy="8" r="1"/>
        <circle cx="6" cy="6" r="1"/>
        <circle cx="4" cy="4" r="1"/>
        <circle cx="2" cy="2" r="1"/>
        <path d="M1 0C1 .552.552 1 0 1V0h1z"/>
        <circle cx="16" cy="16" r="1"/>
      </g>
    </pattern>
  </defs>

  <path
    fill="#be854d"
    fill-rule="nonzero" 
    d="M279.97 113.949h208.603c9.566 0 19.135-4.488 23.428-10.928-1.754 6.44-12.496 14.057-23.623 14.057H279.775c-9.565 0-19.131 4.484-23.426 10.922 1.756-6.438 12.494-14.051 23.621-14.051m-47.976 0H23.423c-9.562 0-19.127-4.488-23.424-10.928 1.758 6.44 12.492 14.057 23.619 14.057h208.571c9.567 0 19.137 4.484 23.428 10.922-1.754-6.438-12.496-14.051-23.623-14.051m47.976-99.847h208.244c9.562 0 19.49 4.488 23.787 10.928-1.758-6.44-12.855-14.057-23.982-14.057H279.775c-9.567 0-19.137-4.484-23.428-10.922 1.754 6.438 12.496 14.051 23.623 14.051m-47.976 0H23.427c-9.566 0-19.135 4.488-23.428 10.928 1.754-6.44 12.496-14.057 23.623-14.057h208.567c9.565 0 19.131-4.484 23.426-10.922-1.756 6.438-12.494 14.051-23.621 14.051"/>
  <path
    fill="url(#DiamondDots2)"
    fill-rule="nonzero"
    stroke="#eeeeee"
    d="M512 90.535c0 8.334-7.999 16.334-24 16.334H277.315c-12.332 0-17.309 5.198-21.315 13.131-3.483-7.775-9.02-13.131-21.351-13.131H24c-16 0-24-8-24-16.334V37.86c0-8.334 8-16.333 24-16.333h210.649C246.98 21.527 252.361 15.742 256 8c4.547 7.658 8.983 13.527 21.315 13.527H488c16.001 0 24.001 7.999 24.001 16.333L512 90.535z"/>
</svg>