<svg xmlns="http://www.w3.org/2000/svg" xmlns:serif="http://www.serif.com/" fill-rule="evenodd" stroke-linejoin="round" stroke-miterlimit="1" clip-rule="evenodd" version="1" viewBox="0 0 178 178">
  <g transform="matrix(.41648 0 0 .46043 -17305 -1541)">
    <path fill="none" d="M41551 3347h427v386h-427z"/>
    <clipPath id="a">
      <path d="M41551 3347h427v386h-427z"/>
    </clipPath>
    <g clip-path="url(#a)" serif:id="Alma BG Pattern 1">
      <path fill="#1ea6bb" d="M41538 3335h454v411h-454z"/>
      <circle cx="42191" cy="4014" r="5" fill="#3bb8c8" transform="matrix(1.11076 0 0 1.00475 -5201 -353)"/>
      <circle cx="42191" cy="4014" r="5" fill="#3bb8c8" transform="matrix(1.11076 0 0 1.00475 -4994 -315)"/>
      <circle cx="42191" cy="4014" r="5" fill="#3bb8c8" transform="matrix(1.11076 0 0 1.00475 -4994 -344)"/>
      <circle cx="42191" cy="4014" r="5" fill="#3bb8c8" transform="matrix(1.11076 0 0 1.00475 -4994 -373)"/>
      <circle cx="42191" cy="4014" r="5" fill="#3bb8c8" transform="matrix(1.11076 0 0 1.00475 -4994 -402)"/>
      <circle cx="42191" cy="4014" r="5" fill="#3bb8c8" transform="matrix(1.11076 0 0 1.00475 -4994 -431)"/>
      <circle cx="42191" cy="4014" r="5" fill="#3bb8c8" transform="matrix(1.11076 0 0 1.00475 -4994 -460)"/>
      <circle cx="42191" cy="4014" r="5" fill="#3bb8c8" transform="matrix(1.11076 0 0 1.00475 -4994 -489)"/>
      <circle cx="42191" cy="4014" r="5" fill="#3bb8c8" transform="matrix(1.11076 0 0 1.00475 -4994 -518)"/>
      <circle cx="42191" cy="4014" r="5" fill="#3bb8c8" transform="matrix(1.11076 0 0 1.00475 -4994 -547)"/>
      <circle cx="42191" cy="4014" r="5" fill="#3bb8c8" transform="matrix(1.11076 0 0 1.00475 -5201 -324)"/>
      <circle cx="42191" cy="4014" r="5" fill="#3bb8c8" transform="matrix(1.11076 0 0 1.00475 -5201 -504)"/>
      <circle cx="42191" cy="4014" r="5" fill="#3bb8c8" transform="matrix(1.11076 0 0 1.00475 -5201 -533)"/>
      <circle cx="42191" cy="4014" r="5" fill="#3bb8c8" transform="matrix(1.11076 0 0 1.00475 -5201 -562)"/>
      <circle cx="42191" cy="4014" r="5" fill="#3bb8c8" transform="matrix(1.11076 0 0 1.00475 -5201 -591)"/>
      <circle cx="42191" cy="4014" r="5" fill="#3bb8c8" transform="matrix(1.11076 0 0 1.00475 -5201 -620)"/>
      <circle cx="42191" cy="4014" r="5" fill="#3bb8c8" transform="matrix(1.11076 0 0 1.00475 -5201 -649)"/>
      <circle cx="42191" cy="4014" r="5" fill="#3bb8c8" transform="matrix(1.11076 0 0 1.00475 -5201 -678)"/>
      <path fill="#3bb8c8" fill-rule="nonzero" d="M41654 3549c-4 0-9 2-12 6-7 9-10 28 1 55-9-13-15-35-8-50-5 0-11 3-14 6-5 7-7 16-5 27 2 12 5 19 14 28-11-7-22-28-17-42-8 1-17 9-17 21 2 20 11 26 17 29-12-3-18-14-19-25-6 4-7 13-7 18 1 9 9 20 18 22 6-5 9-7 15-7 7 0 14 5 14 11s-4 14-18 11c10 1 15-4 15-10s-5-9-11-9-14 4-15 13c-1 5 4 22 24 22 17 0 33-9 33-30 0-30-17-76-3-96h-5zM41861 3354c-4 0-9 2-12 6-7 9-9 28 1 55-8-13-15-34-7-50-5 0-11 3-14 7-6 7-8 15-6 26 3 12 6 19 14 28-11-7-22-28-17-42-8 1-17 9-16 21 1 20 11 26 16 30-11-4-18-14-18-26-7 4-8 13-8 18 1 9 9 20 18 22 6-5 10-7 16-7 7 0 13 5 13 12 0 5-4 13-17 11 9 0 14-4 14-10s-5-10-11-10c-5 0-14 4-15 13 0 5 4 22 25 22 16 0 32-9 32-30 0-29-17-76-2-96h-6zM41669 3549h-1c13 19-1 61-3 90v10c2 18 17 26 33 26 20 0 25-17 24-22-1-9-9-13-15-13s-11 3-11 9 5 11 15 10c-14 3-18-5-18-11s7-11 14-11c6 0 9 2 15 7 9-2 17-13 18-22 0-5-1-14-7-18-1 11-7 22-19 25 6-3 15-9 17-29 0-12-9-20-17-21 5 14-6 35-17 42 9-9 12-16 14-28 2-11 0-20-5-27-3-3-9-6-14-6 7 15 1 37-8 50 11-27 8-46 1-55-3-4-8-6-12-6h-4zM41876 3354h-1c13 19-1 61-2 91v9c1 18 16 26 32 26 20 0 25-17 24-22-1-9-9-13-15-13-5 0-11 4-11 10s6 10 15 10c-13 2-18-6-18-11 0-7 7-12 14-12 6 0 10 2 15 7 10-2 18-13 18-22 1-5-1-14-7-18 0 12-7 22-18 26 5-4 15-10 16-30 1-12-9-20-16-21 5 14-6 35-17 42 8-9 11-16 14-28 2-11-1-19-6-26-3-4-9-7-14-7 7 16 1 37-7 50 10-27 7-46 0-55-3-4-7-6-11-6h-5z"/>
    </g>
  </g>
</svg>
