<svg xmlns="http://www.w3.org/2000/svg" fill-rule="evenodd" stroke-linejoin="round" stroke-miterlimit="2" clip-rule="evenodd" viewBox="0 0 12 12">
  <path fill="none" d="M0 0h11.52v11.52H0z"/>
  <clipPath id="a">
    <path d="M0 0h11.52v11.52H0z"/>
  </clipPath>
  <g clip-path="url(#a)">
    <path fill="#007887" d="M0 0h11.52v11.52H0z"/>
    <path fill="#00e2ff" d="M5.416 5.775c0-.182.148-.331.331-.331.182 0 .331.149.331.331 0 .183-.149.331-.331.331-.183 0-.331-.148-.331-.331zM6.127 6.487c0-.183.148-.331.331-.331.183 0 .331.148.331.331 0 .182-.148.33-.331.33-.183 0-.331-.148-.331-.33zM6.126 5.065c0-.182.148-.33.331-.33.182 0 .331.148.331.33 0 .183-.149.331-.331.331-.183 0-.331-.148-.331-.331zM6.841 4.35c0-.183.149-.331.331-.331.183 0 .331.148.331.331 0 .182-.148.331-.331.331-.182 0-.331-.149-.331-.331zM7.557 3.634c0-.183.148-.331.331-.331.183 0 .331.148.331.331 0 .183-.148.331-.331.331-.183 0-.331-.148-.331-.331zM8.273 2.918c0-.182.148-.331.331-.331.182 0 .331.149.331.331 0 .183-.149.331-.331.331-.183 0-.331-.148-.331-.331zM8.989 2.203c0-.183.148-.331.331-.331.182 0 .33.148.33.331 0 .182-.148.331-.33.331-.183 0-.331-.149-.331-.331zM9.704 1.487c0-.183.149-.331.331-.331.183 0 .331.148.331.331 0 .182-.148.331-.331.331-.182 0-.331-.149-.331-.331zM10.42.771c0-.183.148-.331.331-.331.183 0 .331.148.331.331 0 .183-.148.331-.331.331-.183 0-.331-.148-.331-.331zM6.838 7.198c0-.183.148-.331.331-.331.183 0 .331.148.331.331 0 .182-.148.331-.331.331-.183 0-.331-.149-.331-.331zM7.549 7.909c0-.183.149-.331.331-.331.183 0 .331.148.331.331 0 .183-.148.331-.331.331-.182 0-.331-.148-.331-.331zM8.26 8.62c0-.183.149-.331.331-.331.183 0 .331.148.331.331 0 .183-.148.331-.331.331-.182 0-.331-.148-.331-.331zM8.972 9.331c0-.182.148-.331.331-.331.182 0 .33.149.33.331 0 .183-.148.331-.33.331-.183 0-.331-.148-.331-.331zM9.683 10.042c0-.182.148-.331.331-.331.182 0 .331.149.331.331 0 .183-.149.331-.331.331-.183 0-.331-.148-.331-.331zM10.394 10.754c0-.183.148-.331.331-.331.183 0 .331.148.331.331 0 .182-.148.33-.331.33-.183 0-.331-.148-.331-.33zM4.707 6.484c0-.182.148-.331.331-.331.182 0 .331.149.331.331 0 .183-.149.331-.331.331-.183 0-.331-.148-.331-.331zM4 7.191c0-.183.149-.331.331-.331.183 0 .331.148.331.331 0 .182-.148.331-.331.331-.182 0-.331-.149-.331-.331zM3.294 7.897c0-.183.148-.331.331-.331.183 0 .331.148.331.331 0 .183-.148.331-.331.331-.183 0-.331-.148-.331-.331zM2.588 8.604c0-.183.148-.331.331-.331.182 0 .331.148.331.331 0 .182-.149.33-.331.33-.183 0-.331-.148-.331-.33zM1.881 9.31c0-.183.149-.331.331-.331.183 0 .331.148.331.331 0 .183-.148.331-.331.331-.182 0-.331-.148-.331-.331zM1.175 10.016c0-.182.148-.331.331-.331.182 0 .331.149.331.331 0 .183-.149.331-.331.331-.183 0-.331-.148-.331-.331zM.468 10.723c0-.183.149-.331.331-.331.183 0 .331.148.331.331 0 .182-.148.331-.331.331-.182 0-.331-.149-.331-.331zM-.331 11.52c0-.183.148-.331.331-.331.183 0 .331.148.331.331 0 .183-.148.331-.331.331-.183 0-.331-.148-.331-.331zM11.189 11.52c0-.183.148-.331.331-.331.183 0 .331.148.331.331 0 .183-.148.331-.331.331-.183 0-.331-.148-.331-.331zM11.189 0c0-.183.148-.331.331-.331.183 0 .331.148.331.331 0 .183-.148.331-.331.331-.183 0-.331-.148-.331-.331zM.433.805c0-.183.149-.331.331-.331.183 0 .331.148.331.331 0 .182-.148.331-.331.331-.182 0-.331-.149-.331-.331zM-.331 0c0-.183.148-.331.331-.331.183 0 .331.148.331.331C.331.183.183.331 0 .331-.183.331-.331.183-.331 0zM1.144 1.516c0-.183.148-.331.331-.331.183 0 .331.148.331.331 0 .182-.148.331-.331.331-.183 0-.331-.149-.331-.331zM1.855 2.226c0-.182.148-.33.331-.33.183 0 .331.148.331.33 0 .183-.148.331-.331.331-.183 0-.331-.148-.331-.331zM2.566 2.937c0-.182.148-.331.331-.331.183 0 .331.149.331.331 0 .183-.148.331-.331.331-.183 0-.331-.148-.331-.331zM3.277 3.648c0-.182.148-.331.331-.331.183 0 .331.149.331.331 0 .183-.148.331-.331.331-.183 0-.331-.148-.331-.331zM3.988 4.359c0-.182.148-.331.331-.331.183 0 .331.149.331.331 0 .183-.148.331-.331.331-.183 0-.331-.148-.331-.331zM4.699 5.07c0-.182.148-.331.331-.331.183 0 .331.149.331.331 0 .183-.148.331-.331.331-.183 0-.331-.148-.331-.331z"/>
  </g>
</svg>
