<svg
  viewBox="0 0 256 256"
  xmlns="http://www.w3.org/2000/svg"
  fill-rule="evenodd"
  clip-rule="evenodd"
  stroke-linejoin="round"
  stroke-miterlimit="2">
  <path
    fill="none" d="M0-.00592842h256.00044423v255.99981053H0z"
  />
  <path
    d="M1842.23 1550.76l39.9-34.38 27.58 45.66 49.53-19.81 11.26 52.13 53.27-2.67-6.27 52.97 51.25 14.79-23.13 48.06 43.66 30.62-37.48 37.95 31.37 43.14-47.78 23.71 15.65 51-52.89 6.92-1.73 53.31-52.29-10.63-18.96 49.85-45.98-27.02-34.12 40.99-2.84-3.3v.01l-31.88-37.19-45.59 27.69-19.69-49.57-52.11 11.39-2.54-53.28-52.98-6.15 14.92-51.21-48.12-23.01 30.73-43.6-38.04-37.4 43.22-31.25-23.83-47.71 51.03-15.54-7.06-52.87 53.31 1.88 10.5-52.29 49.81 19.08 26.9-46.05 40.91 34.22.51-.44z" fill="url(#_Radial1)"
    fill-rule="nonzero"
    transform="matrix(.51182 0 0 .51327 -815.34539528 -776.31368249)"
  />
  <defs>
    <radialGradient id="_Radial1" cx="0" cy="0" r="1" gradientUnits="userSpaceOnUse" gradientTransform="matrix(246.178 0 0 286.867 1843.1 1761.87)">
      <stop offset="0" stop-color="#00a6c0"/>
      <stop offset="1" stop-color="#006997"/>
    </radialGradient>
  </defs>
</svg>
